<?xml version="1.0" encoding="UTF-8"?>
<svg version="1.1" xmlns="http://www.w3.org/2000/svg" width="471" height="451">
<path d="M0 0 C10.53511614 0.00452205 21.07022127 0.00364976 31.60533725 -0.00090817 C44.05115122 -0.00629072 56.49695877 -0.00835396 68.94277374 -0.0052959 C75.45715598 -0.00375675 81.97153071 -0.00347444 88.48591243 -0.00683239 C94.56814963 -0.00975361 100.65036626 -0.00765876 106.73260127 -0.00193813 C108.93578632 -0.00063607 111.13897317 -0.00096003 113.34215747 -0.0032008 C129.06234739 -0.01769878 144.73524693 0.42510385 160.43956576 1.12946293 C161.72839657 4.99595534 161.62162742 8.66416094 161.64269076 12.69586918 C161.64961444 13.5989632 161.65653811 14.50205723 161.6636716 15.43251774 C161.68147571 18.5190416 161.68732299 21.60538931 161.68956576 24.69196293 C161.69090518 25.78011295 161.6922446 26.86826298 161.6936246 27.98938724 C161.68418875 64.3889789 159.99340701 100.76976866 158.43956576 137.12946293 C158.39338233 138.21329132 158.39338233 138.21329132 158.3462659 139.31901523 C156.91947217 172.74038599 155.02268398 206.13473236 153.04215823 239.52709553 C152.87908071 242.28291271 152.71733166 245.03880522 152.55583774 247.79471561 C152.29936805 252.1622632 152.03761826 256.52946656 151.77202998 260.89646885 C151.67504896 262.50128109 151.57952795 264.10618244 151.48568736 265.71118137 C150.98770471 274.20169439 150.34403898 282.65842032 149.42809115 291.11505863 C149.34571672 291.8883435 149.26334229 292.66162836 149.17847167 293.4583461 C148.56322633 298.8821418 148.56322633 298.8821418 147.43956576 301.12946293 C136.92680484 303.62150529 125.7537015 303.68679343 115.00206576 304.19196293 C112.60015028 304.30839156 110.19836703 304.4267525 107.79672824 304.54875919 C106.31876152 304.62351058 104.84062503 304.69501011 103.36231051 304.76253483 C98.9930462 304.97943849 94.75486349 305.45109855 90.43956576 306.12946293 C90.50917514 306.96348637 90.57878451 307.7975098 90.65050326 308.65680668 C90.98919732 315.69680452 90.74199465 320.50450714 86.32628451 326.14508793 C82.9985237 329.64509309 79.44990917 332.44758476 75.43956576 335.12946293 C74.60038608 335.7043848 73.76120639 336.27930668 72.89659701 336.87165043 C52.01114437 350.12757947 24.85159367 354.85298442 0.43956576 355.12946293 C-0.47051236 355.1484766 -1.38059049 355.16749027 -2.31824674 355.18708012 C-37.45864794 355.88667688 -77.3096961 353.67838569 -105.56043424 330.12946293 C-111.7849883 323.49708194 -115.08029588 317.69758705 -114.79871549 308.52399418 C-114.54863581 306.01089842 -114.07062497 303.60133318 -113.56043424 301.12946293 C-114.41049039 301.10440678 -115.26054654 301.07935062 -116.13636197 301.05353519 C-125.61199329 300.77074752 -135.08639312 300.46096262 -144.56043424 300.12946293 C-145.51579068 300.0973975 -146.47114713 300.06533207 -147.45545377 300.03229496 C-170.39211176 299.21362417 -170.39211176 299.21362417 -178.56043424 295.12946293 C-180.90302269 285.63880708 -181.20827418 275.5754737 -181.92762174 265.84821293 C-182.04818204 264.2624353 -182.1689878 262.67667632 -182.29001798 261.09093449 C-182.61329897 256.82669795 -182.92838411 252.56189777 -183.2403201 248.29681751 C-183.43697196 245.6084411 -183.63507567 242.92017416 -183.83326139 240.23191044 C-186.67442528 201.56077549 -188.85754855 162.86668342 -190.56043424 124.12946293 C-190.60635709 123.0897673 -190.60635709 123.0897673 -190.65320767 122.02906772 C-192.40026069 82.37974074 -192.83972007 42.80831625 -192.56043424 3.12946293 C-189.2917117 1.19351998 -186.81684018 0.86256937 -183.04046048 0.81259891 C-181.90116023 0.79313331 -180.76185998 0.77366772 -179.58803548 0.75361225 C-178.32555549 0.74245254 -177.0630755 0.73129284 -175.76233853 0.71979496 C-174.39215674 0.70119983 -173.02198424 0.68190886 -171.65182103 0.66199085 C-167.82113738 0.60958838 -163.99042093 0.57116526 -160.15954603 0.53583261 C-157.67246426 0.51203924 -155.1854439 0.48473293 -152.69840993 0.45640156 C-101.80186945 -0.11782973 -50.89909103 -0.02225258 0 0 Z M-95.56043424 305.12946293 C-95.56043424 306.44946293 -95.56043424 307.76946293 -95.56043424 309.12946293 C-93.35341242 309.73840312 -91.14471564 310.34127236 -88.93543424 310.94196293 C-87.0907858 311.4466309 -87.0907858 311.4466309 -85.20887174 311.96149418 C-81.47672373 312.93522736 -77.72109641 313.74793735 -73.94715299 314.54352543 C-65.35554347 316.35841969 -56.8448624 318.47700648 -48.32801236 320.6118848 C-36.98185645 323.40132538 -25.83755223 325.51706371 -14.12293424 325.44196293 C-13.19553433 325.43777347 -12.26813443 325.43358402 -11.3126315 325.42926762 C4.78577925 325.17453306 21.64513502 323.3467339 36.31456576 316.31696293 C42.51649601 313.96022944 48.37762318 316.638526 54.18956576 319.06696293 C54.8482767 319.33186527 55.50698764 319.59676762 56.18565951 319.8696973 C59.16598729 321.08782316 61.75101767 322.33709753 64.43956576 324.12946293 C69.97254201 324.00078906 74.19206141 321.48226015 78.43956576 318.12946293 C80.76538963 315.02836443 82.0932395 311.75418747 83.43956576 308.12946293 C79.62934365 306.85938889 76.0352263 306.93828222 72.06456576 306.94196293 C70.85933261 306.94208378 70.85933261 306.94208378 69.62975131 306.94220707 C62.75873424 307.00720225 56.19258032 307.88092987 49.43956576 309.12946293 C44.68354332 309.91968664 40.24812075 310.21001552 35.43175326 310.04352543 C34.11433139 309.9996973 32.79690951 309.95586918 31.43956576 309.91071293 C30.42056186 309.87204105 30.42056186 309.87204105 29.38097201 309.83258793 C27.34078152 309.75545407 25.30045353 309.68772996 23.25987826 309.62165043 C17.03012258 309.40919134 10.82062359 309.10998141 4.60753451 308.59821293 C-0.98237947 308.14226142 -6.51614961 307.97773948 -12.12293424 308.00446293 C-13.0818356 308.00349613 -14.04073697 308.00252933 -15.02869596 308.00153324 C-20.63600207 308.0212237 -26.21512207 308.19230474 -31.81434049 308.49665043 C-33.04015836 308.55868656 -34.26597623 308.62072269 -35.5289401 308.68463871 C-37.8968296 308.81080388 -40.26379768 308.95637421 -42.62903775 309.1250684 C-49.93511413 309.51001966 -55.6915561 308.56429451 -62.58265103 306.08039066 C-66.5176618 304.82378109 -70.31023507 304.51563712 -74.41590299 304.30524418 C-76.56043424 304.12946293 -76.56043424 304.12946293 -78.56043424 303.12946293 C-84.59958559 302.6547216 -89.85102575 303.14358171 -95.56043424 305.12946293 Z " fill="#AAA699" transform="translate(253.56043423712254,43.87053707242012)"/>
<path d="M0 0 C0.9081726 -0.00199105 1.8163452 -0.0039821 2.75203818 -0.00603348 C3.75105527 -0.00312064 4.75007235 -0.0002078 5.77936268 0.00279331 C7.36966768 0.00151167 7.36966768 0.00151167 8.99210006 0.00020415 C12.56205841 -0.00144939 16.13197027 0.0040687 19.70192432 0.00952244 C22.25405851 0.00980436 24.80619277 0.00964647 27.35832691 0.00907993 C32.86185458 0.00885185 38.36536715 0.01169727 43.86889172 0.01731777 C51.82609868 0.02543883 59.7832999 0.02804862 67.74051056 0.02930576 C80.65001501 0.03149533 93.55951315 0.03815283 106.46901417 0.04760838 C119.01068051 0.05678496 131.55234514 0.06386459 144.09401417 0.06811619 C144.86685785 0.06837891 145.63970154 0.06864164 146.43596473 0.06891232 C150.31302727 0.07021734 154.19008982 0.07148105 158.06715238 0.07272422 C190.24009202 0.08309386 222.4130239 0.10070959 254.58595753 0.12304783 C254.75321481 1.71752169 254.91824758 3.312229 255.08234596 4.90703106 C255.17448807 5.79505795 255.26663017 6.68308483 255.36156446 7.59802163 C255.63378877 10.66127805 255.64131945 13.65879516 255.54762745 16.73193455 C255.51388523 17.94128162 255.48014301 19.1506287 255.4453783 20.39662266 C255.40282413 21.68563984 255.36026997 22.97465702 255.31642628 24.30273533 C255.27513957 25.69309515 255.2344083 27.08347156 255.19418812 28.47386265 C255.08454945 32.20574879 254.96680739 35.93733773 254.84731007 39.66891956 C254.72265118 43.60035574 254.60504779 47.53200425 254.48634815 51.463624 C254.24259768 59.48862937 253.98909403 67.51330384 253.73238087 75.53790379 C253.59422947 79.85643673 253.45828537 84.17503685 253.32277393 88.4936533 C252.52193154 113.93399346 251.65493466 139.37204148 250.65163136 164.80526829 C250.5671228 166.9515643 250.48376298 169.09790589 250.40163136 171.24429417 C250.28885268 174.17151122 250.17071635 177.09845931 250.05080128 180.02539158 C250.01856968 180.88065434 249.98633808 181.73591709 249.95312977 182.6170969 C249.90274303 183.80134754 249.90274303 183.80134754 249.85133839 185.00952244 C249.82406162 185.68792683 249.79678486 186.36633121 249.76868153 187.06529331 C249.55552505 189.46576455 249.09335776 191.76885232 248.58595753 194.12304783 C237.76078104 195.18962305 227.01156296 195.2854497 216.14455128 195.29101658 C214.19201083 195.29502655 212.23947074 195.2992181 210.28693104 195.30357456 C203.8657652 195.31507973 197.44463045 195.31320878 191.02345753 195.31054783 C188.79174773 195.31060399 186.56003793 195.31066506 184.32832813 195.31073093 C146.53459367 195.30250129 108.74875247 194.9252248 70.96008998 194.34321553 C66.10331724 194.26856646 61.24649523 194.19814652 56.38963795 194.1292429 C49.81120327 194.03547502 43.23301322 193.93030877 36.65487576 193.81735516 C34.22524583 193.77682195 31.79556444 193.73924951 29.36583996 193.70484829 C26.02899768 193.65667329 22.69256694 193.59674177 19.35597706 193.53369236 C18.3904362 193.52218238 17.42489534 193.5106724 16.43009567 193.49881363 C1.64239187 193.17948217 1.64239187 193.17948217 -1.41404247 190.12304783 C-2.84838853 176.42911994 -2.87898229 162.51481237 -3.35154247 148.76367283 C-3.43716633 146.3233774 -3.523027 143.88309026 -3.60911083 141.44281101 C-3.83410745 135.05235011 -4.05677451 128.66181057 -4.2786665 122.27124119 C-4.63323264 112.06139878 -4.9899544 101.85163372 -5.34937572 91.6419611 C-5.47306348 88.11293444 -5.5948778 84.58384672 -5.71653271 81.05474949 C-6.06400219 71.09457829 -6.4422843 61.14008208 -6.96653271 51.18750095 C-7.31680227 44.52074227 -7.55512847 37.87893 -7.51169872 31.20117283 C-7.51028378 30.31943394 -7.50886883 29.43769505 -7.507411 28.52923679 C-7.50197201 25.81046703 -7.48945638 23.09179114 -7.47654247 20.37304783 C-7.47150647 18.48893446 -7.46694736 16.60481976 -7.4628706 14.72070408 C-7.45205643 10.1881178 -7.43491353 5.65559849 -7.41404247 1.12304783 C-4.6002115 0.18510417 -2.90917805 -0.00140608 0 0 Z " fill="#3F3F3F" transform="translate(113.41404247283936,87.87695217132568)"/>
<path d="M0 0 C7.99869072 -0.1409139 15.95583388 0.08782759 23.94555664 0.43530273 C52.20432763 1.64275382 80.40086561 2.18927962 108.68359375 2.16015625 C109.92675692 2.15899661 109.92675692 2.15899661 111.1950345 2.15781355 C122.21539839 2.14632951 133.23567535 2.11533022 144.25598145 2.07904053 C157.24238522 2.03671892 170.22882786 2.00841301 183.21528202 1.98725218 C188.04213392 1.97894758 192.86892508 1.96504702 197.69574726 1.94627964 C200.67456882 1.93558914 203.65338992 1.92903973 206.63222504 1.92347908 C208.64796101 1.91840521 210.66368208 1.90820195 212.67939758 1.89779663 C219.51959787 1.88928997 226.21204254 2.13067823 233 3 C233 3.33 233 3.66 233 4 C232.43079834 4.02505615 231.86159668 4.0501123 231.27514648 4.07592773 C228.66242687 4.19293894 226.04997638 4.3151828 223.4375 4.4375 C222.54224609 4.47681641 221.64699219 4.51613281 220.72460938 4.55664062 C215.7541781 4.79332783 210.91176481 5.19821672 206 6 C206.10441406 7.25103516 206.10441406 7.25103516 206.2109375 8.52734375 C206.54963155 15.56734159 206.30242889 20.37504421 201.88671875 26.015625 C198.55895794 29.51563016 195.01034341 32.31812183 191 35 C189.74123047 35.86238281 189.74123047 35.86238281 188.45703125 36.7421875 C167.5715786 49.99811654 140.41202791 54.7235215 116 55 C115.08992188 55.01901367 114.17984375 55.03802734 113.2421875 55.05761719 C78.1017863 55.75721395 38.25073814 53.54892277 10 30 C4.65520739 24.30502161 0.78227005 18.78503009 0.6875 10.8125 C0.82687686 7.46229314 1.13286992 4.25173778 2 1 C1.34 0.67 0.68 0.34 0 0 Z M20 5 C20 6.32 20 7.64 20 9 C22.20702182 9.60894019 24.4157186 10.21180944 26.625 10.8125 C28.46964844 11.31716797 28.46964844 11.31716797 30.3515625 11.83203125 C34.0837105 12.80576443 37.83933783 13.61847443 41.61328125 14.4140625 C50.20489077 16.22895676 58.71557183 18.34754355 67.23242188 20.48242188 C78.57857779 23.27186246 89.72288201 25.38760078 101.4375 25.3125 C102.3648999 25.30831055 103.2922998 25.30412109 104.24780273 25.29980469 C120.34621349 25.04507013 137.20556926 23.21727097 151.875 16.1875 C158.07693024 13.83076651 163.93805742 16.50906307 169.75 18.9375 C170.40871094 19.20240234 171.06742188 19.46730469 171.74609375 19.74023438 C174.72642152 20.95836023 177.31145191 22.2076346 180 24 C185.53297624 23.87132613 189.75249565 21.35279723 194 18 C196.32582387 14.89890151 197.65367374 11.62472455 199 8 C195.18977789 6.72992596 191.59566053 6.8088193 187.625 6.8125 C186.41976685 6.81262085 186.41976685 6.81262085 185.19018555 6.81274414 C178.31916847 6.87773932 171.75301456 7.75146694 165 9 C160.24397756 9.79022371 155.80855499 10.08055259 150.9921875 9.9140625 C149.67476562 9.87023437 148.35734375 9.82640625 147 9.78125 C145.98099609 9.74257813 145.98099609 9.74257813 144.94140625 9.703125 C142.90121576 9.62599114 140.86088776 9.55826703 138.8203125 9.4921875 C132.59055681 9.27972842 126.38105783 8.98051848 120.16796875 8.46875 C114.57805477 8.01279849 109.04428463 7.84827655 103.4375 7.875 C102.47859863 7.8740332 101.51969727 7.87306641 100.53173828 7.87207031 C94.92443217 7.89176077 89.34531217 8.06284181 83.74609375 8.3671875 C82.52027588 8.42922363 81.29445801 8.49125977 80.03149414 8.55517578 C77.66360464 8.68134096 75.29663656 8.82691128 72.93139648 8.99560547 C65.62532011 9.38055673 59.86887814 8.43483158 52.9777832 5.95092773 C49.04277244 4.69431816 45.25019917 4.38617419 41.14453125 4.17578125 C39 4 39 4 37 3 C30.96084865 2.52525867 25.70940849 3.01411879 20 5 Z " fill="#64625E" transform="translate(138,344)"/>
<path d="M0 0 C2.68271799 2.32502226 3.90241999 3.65149997 4.875 7.125 C5.24625 8.07375 5.6175 9.0225 6 10 C8.84979639 11.11680706 8.84979639 11.11680706 12 12 C12.6909375 12.75023437 13.381875 13.50046875 14.09375 14.2734375 C17.90710181 17.85101756 21.89964602 19.56456256 26.6875 21.5625 C27.61796143 21.95381104 28.54842285 22.34512207 29.50708008 22.74829102 C51.37602438 31.63772739 74.80190225 32.43838343 98.125 32.4375 C99.76243668 32.44009827 99.76243668 32.44009827 101.43295288 32.44274902 C126.62215115 32.42526371 149.8261302 29.62772298 173.75 21.375 C178.09562597 19.89958339 182.50445042 18.90336103 187 18 C187 17.34 187 16.68 187 16 C187.54269531 15.76925781 188.08539063 15.53851563 188.64453125 15.30078125 C193.34301144 13.15895154 195.54766876 11.67110712 198 7 C200.6875 4.6875 200.6875 4.6875 203 3 C204.09718014 6.05643038 204.37812746 8.14456412 203.046875 11.15625 C199.3286529 17.12174919 194.80180814 21.1200972 189 25 C187.74123047 25.86238281 187.74123047 25.86238281 186.45703125 26.7421875 C165.5715786 39.99811654 138.41202791 44.7235215 114 45 C113.08992188 45.01901367 112.17984375 45.03802734 111.2421875 45.05761719 C76.1017863 45.75721395 36.25073814 43.54892277 8 20 C4.10925326 15.87241329 0.7869684 11.42549442 -1 6 C-0.75 2.5 -0.75 2.5 0 0 Z " fill="#99978E" transform="translate(140,354)"/>
<path d="M0 0 C1.4540625 0.0309375 1.4540625 0.0309375 2.9375 0.0625 C2.9375 0.7225 2.9375 1.3825 2.9375 2.0625 C3.86156143 2.06027939 4.78562286 2.05805878 5.73768616 2.05577087 C14.46217807 2.0357024 23.18666219 2.02049245 31.91117191 2.01068783 C36.39611359 2.00547767 40.88103613 1.99841402 45.3659668 1.98706055 C49.69721603 1.9761652 54.0284469 1.9702091 58.35970879 1.96762276 C60.00904059 1.96578047 61.65837144 1.962183 63.30769539 1.95676994 C65.62450427 1.94947122 67.94123804 1.94851277 70.25805664 1.94897461 C71.5748793 1.946754 72.89170197 1.94453339 74.24842834 1.94224548 C77.91326161 2.06170989 81.32517006 2.47292591 84.9375 3.0625 C84.9375 3.3925 84.9375 3.7225 84.9375 4.0625 C-32.8725 4.5575 -32.8725 4.5575 -153.0625 5.0625 C-152.3067032 37.35284266 -152.3067032 37.35284266 -151.1875 69.625 C-151.01285907 73.97520238 -150.8404987 78.32549471 -150.66796875 82.67578125 C-150.62150711 83.8398349 -150.57504547 85.00388855 -150.5271759 86.20321655 C-150.13420271 96.10127218 -149.7647017 106.00011329 -149.40039825 115.89925957 C-149.30073663 118.60668089 -149.20079428 121.31409172 -149.10076904 124.02149963 C-148.54757495 139.00009906 -148.54757495 139.00009906 -148.30596924 145.63577271 C-148.15078966 149.89672648 -147.99363297 154.15760335 -147.83516502 158.41843605 C-147.77701418 159.99161933 -147.71956979 161.56482892 -147.66292763 163.13806725 C-147.50895028 167.41039434 -147.34076277 171.68167139 -147.15162277 175.95259094 C-147.09004459 177.41040423 -147.03442548 178.86847708 -146.98363113 180.32670593 C-146.90505452 182.55680781 -146.8080172 184.78545171 -146.70727539 187.01464844 C-146.65543594 188.32093201 -146.6035965 189.62721558 -146.55018616 190.9730835 C-146.38924973 191.99259094 -146.22831329 193.01209839 -146.0625 194.0625 C-145.0725 194.7225 -144.0825 195.3825 -143.0625 196.0625 C-144.7125 196.0625 -146.3625 196.0625 -148.0625 196.0625 C-149.26672446 192.44982661 -149.36600505 189.03073692 -149.53125 185.26171875 C-149.57092896 184.4375798 -149.61060791 183.61344086 -149.65148926 182.764328 C-149.74124156 180.89925531 -149.82930702 179.03410095 -149.91601562 177.16888428 C-150.0725814 173.84871123 -150.23845079 170.52909651 -150.40625 167.20947266 C-150.76463643 160.11452734 -151.1154861 153.01922664 -151.46234894 145.92370987 C-151.52951832 144.54967967 -151.59677501 143.17565373 -151.66411591 141.80163193 C-152.52180648 124.29230118 -153.36440628 106.78587522 -153.77148438 89.2590332 C-153.79791016 88.16937256 -153.82433594 87.07971191 -153.8515625 85.95703125 C-153.86912598 85.06862549 -153.88668945 84.18021973 -153.90478516 83.26489258 C-154.03915198 80.5365804 -154.286899 77.86519012 -154.56958008 75.14990234 C-155.23545043 68.02643146 -155.18774051 60.91756865 -155.16015625 53.76953125 C-155.15828639 52.32793731 -155.15686518 50.88634273 -155.15586853 49.44474792 C-155.15208803 45.68836651 -155.14229705 41.93202504 -155.13116455 38.17565918 C-155.12085324 34.32739807 -155.11635029 30.47913038 -155.11132812 26.63085938 C-155.10066981 19.1080549 -155.08364852 11.58528309 -155.0625 4.0625 C-152.70774637 2.88512319 -151.28193829 2.92526387 -148.65560913 2.90428162 C-147.72833008 2.8944928 -146.80105103 2.88470398 -145.84567261 2.87461853 C-144.82458405 2.86886307 -143.80349548 2.8631076 -142.75146484 2.85717773 C-141.14099274 2.84232834 -141.14099274 2.84232834 -139.49798584 2.82717896 C-135.92315917 2.79542995 -132.34831979 2.77072015 -128.7734375 2.74609375 C-126.27787957 2.72550208 -123.78232495 2.70450505 -121.28677368 2.68312073 C-116.0325108 2.63907162 -110.77823381 2.5980476 -105.52392578 2.55981445 C-98.85634489 2.51128969 -92.18881717 2.45752972 -85.52129173 2.40183926 C-79.10535266 2.34837037 -72.68939737 2.29699878 -66.2734375 2.24609375 C-64.48044283 2.23175702 -64.48044283 2.23175702 -62.65122604 2.21713066 C-59.17422944 2.18980934 -55.69722632 2.16378094 -52.22021484 2.13842773 C-50.56418527 2.12587023 -50.56418527 2.12587023 -48.87470055 2.11305904 C-43.3894959 2.07561889 -37.90552184 2.06091477 -32.42022705 2.0864563 C-31.34792658 2.09058816 -30.27562611 2.09472002 -29.17083168 2.09897709 C-27.17285784 2.10828895 -25.17489652 2.12189115 -23.17699242 2.14100552 C-16.78654503 2.1705423 -10.39369245 2.00310428 -4.0625 1.0625 C-3.0625 0.0625 -3.0625 0.0625 0 0 Z " fill="#76726B" transform="translate(259.0625,83.9375)"/>
<path d="M0 0 C0 0.66 0 1.32 0 2 C1.65 2.33 3.3 2.66 5 3 C5 3.33 5 3.66 5 4 C3.77482666 4.07516846 3.77482666 4.07516846 2.52490234 4.15185547 C-1.19230479 4.38460974 -4.90860181 4.6296811 -8.625 4.875 C-9.91019531 4.95363281 -11.19539063 5.03226562 -12.51953125 5.11328125 C-13.76347656 5.19707031 -15.00742187 5.28085937 -16.2890625 5.3671875 C-17.43068848 5.44050293 -18.57231445 5.51381836 -19.74853516 5.58935547 C-22.99774652 5.88158143 -22.99774652 5.88158143 -25.91918945 7.03881836 C-29.68650783 8.21418348 -33.11209617 8.16973497 -37.00390625 8.01171875 C-37.76364243 7.98906448 -38.5233786 7.96641022 -39.30613708 7.94306946 C-40.91071799 7.89329646 -42.51514619 7.83836276 -44.11938477 7.77856445 C-46.53053945 7.68869129 -48.94177703 7.6133357 -51.35351562 7.54101562 C-58.1048649 7.3263732 -64.82492103 7.05130312 -71.5546875 6.44921875 C-76.57670835 6.02837459 -81.53233304 5.95215654 -86.56640625 6.0078125 C-87.30164017 6.01563248 -88.03687408 6.02345245 -88.79438782 6.0315094 C-91.82515964 6.06817454 -94.85558903 6.11088704 -97.88598633 6.17138672 C-100.13367153 6.21364804 -102.38093349 6.23710199 -104.62890625 6.2578125 C-105.3111879 6.27643341 -105.99346954 6.29505432 -106.69642639 6.3142395 C-110.84743314 6.33669844 -112.91836603 5.7596592 -116 3 C-116.99 2.67 -117.98 2.34 -119 2 C-119 1.34 -119 0.68 -119 0 C-104.37031538 -0.15408582 -89.74057991 -0.30211347 -75.11076164 -0.4429636 C-68.31762377 -0.50850593 -61.52451621 -0.57601756 -54.73144531 -0.64819336 C-48.17628333 -0.71783584 -41.62108081 -0.78195312 -35.06583023 -0.84269524 C-32.56437473 -0.86677841 -30.06293637 -0.8927158 -27.56151962 -0.92053413 C-24.05910674 -0.95916846 -20.556691 -0.99122132 -17.05419922 -1.02172852 C-16.01913742 -1.03467453 -14.98407562 -1.04762054 -13.91764832 -1.06095886 C-9.15461524 -1.09591993 -4.68326351 -1.01132867 0 0 Z " fill="#5D5D58" transform="translate(330,347)"/>
<path d="M0 0 C4.29 0 8.58 0 13 0 C12.01 0.33 11.02 0.66 10 1 C9.67 1.66 9.34 2.32 9 3 C8.175 3.763125 7.35 4.52625 6.5 5.3125 C3.9262406 8.07929136 3.20023165 9.29571451 3 13 C3.33 13.66 3.66 14.32 4 15 C4.23333333 21.53333333 4.23333333 21.53333333 3 24 C3.165 24.9075 3.33 25.815 3.5 26.75 C4.02244525 30.14589415 3.71515895 32.66259157 3 36 C3.66 36.33 4.32 36.66 5 37 C4.99214478 37.95253662 4.99214478 37.95253662 4.98413086 38.92431641 C4.96323744 41.82453405 4.95030066 44.7247358 4.9375 47.625 C4.92912109 48.62402344 4.92074219 49.62304688 4.91210938 50.65234375 C4.89576664 55.58785076 5.16798741 60.12785421 6 65 C5.66978198 66.3341083 5.33613257 67.6673696 5 69 C4.93330367 70.40612535 4.91463156 71.81513576 4.9375 73.22265625 C4.94523437 74.00833984 4.95296875 74.79402344 4.9609375 75.60351562 C4.98027344 76.82071289 4.98027344 76.82071289 5 78.0625 C5.02554653 79.67831778 5.04656632 81.29421509 5.0625 82.91015625 C5.07410156 83.62308838 5.08570312 84.33602051 5.09765625 85.07055664 C5 87 5 87 4 90 C4.66 90 5.32 90 6 90 C6.495 89.01 6.495 89.01 7 88 C6.9278125 88.76441406 6.855625 89.52882813 6.78125 90.31640625 C5.90027922 100.48427728 5.41076224 110.65749363 6.50390625 120.82421875 C7.28326936 128.92959513 7.10627775 137.05392457 7.0625 145.1875 C7.05747294 146.82356633 7.05291217 148.45963417 7.04882812 150.09570312 C7.03792277 154.06383986 7.0207253 158.03190291 7 162 C7.66 162.33 8.32 162.66 9 163 C9.02719556 165.37507855 9.04693247 167.74983964 9.0625 170.125 C9.07087891 170.79015625 9.07925781 171.4553125 9.08789062 172.140625 C9.10782292 176.20681354 8.78890161 180.0120092 8 184 C8.66 184.33 9.32 184.66 10 185 C9.505 185.99 9.505 185.99 9 187 C10.32 187.66 11.64 188.32 13 189 C13 189.33 13 189.66 13 190 C11.00045254 190.04254356 8.99958364 190.04080783 7 190 C1.09845928 184.09845928 4.34242436 155.78620943 4.0625 147.640625 C3.97687614 145.20032957 3.89101547 142.76004243 3.80493164 140.31976318 C3.57993502 133.92930228 3.35726796 127.53876274 3.13537598 121.14819336 C2.78080983 110.93835096 2.42408807 100.72858589 2.06466675 90.51891327 C1.94097899 86.98988661 1.81916467 83.46079889 1.69750977 79.93170166 C1.35004028 69.97153046 0.97175817 60.01703426 0.44750977 50.06445312 C0.0972402 43.39769444 -0.14108599 36.75588217 -0.09765625 30.078125 C-0.0962413 29.19638611 -0.09482635 28.31464722 -0.09336853 27.40618896 C-0.08792954 24.6874192 -0.07541391 21.96874331 -0.0625 19.25 C-0.057464 17.36588664 -0.05290489 15.48177193 -0.04882812 13.59765625 C-0.03801396 9.06506997 -0.02087105 4.53255066 0 0 Z " fill="#211F1D" transform="translate(106,89)"/>
<path d="M0 0 C0.33 0 0.66 0 1 0 C1.37519488 32.15131547 0.37555768 64.22695859 -0.86071777 96.35217285 C-0.9966678 99.91272897 -1.12837239 103.47341702 -1.25878906 107.03417969 C-1.45599322 112.39298729 -1.66370987 117.75126979 -1.88140869 123.10928345 C-1.95990622 125.06406592 -2.03559055 127.01896357 -2.1083374 128.97396851 C-2.20888038 131.64067263 -2.32137618 134.30659158 -2.4375 136.97265625 C-2.46458038 137.75087738 -2.49166077 138.52909851 -2.51956177 139.3309021 C-2.69469817 143.03919307 -2.89291683 144.83937525 -5 148 C-5 145.03 -5 142.06 -5 139 C-5.66 139 -6.32 139 -7 139 C-7.06631558 135.15369639 -7.11947713 131.66376185 -6.4375 127.875 C-5.84032292 125.0636077 -5.84032292 125.0636077 -6.5 122.5546875 C-7.22238639 117.41897179 -6.83860228 112.41660362 -6.5625 107.25 C-6.2242406 100.55162873 -5.96908305 93.89088101 -6.01147461 87.18359375 C-5.99681638 84.39416424 -5.78451404 81.6490119 -5.5 78.875 C-5.4071875 77.94429688 -5.314375 77.01359375 -5.21875 76.0546875 C-5.1465625 75.37664062 -5.074375 74.69859375 -5 74 C-5.33 74 -5.66 74 -6 74 C-5.91621094 73.40574219 -5.83242188 72.81148438 -5.74609375 72.19921875 C-5.1627475 67.45122328 -4.99016108 63.13339914 -5.5625 58.375 C-6.13019831 53.38635114 -5.52805918 49.76394921 -4 45 C-4.99 45.495 -4.99 45.495 -6 46 C-5.10738255 38.60402685 -5.10738255 38.60402685 -4.5 35.1875 C-3.46741863 28.60479378 -2.92683861 22.09949715 -3.125 15.4375 C-3.20488965 9.89315827 -1.88716479 5.17847004 0 0 Z " fill="#2B2A29" transform="translate(366,128)"/>
<path d="M0 0 C73.59 0 147.18 0 223 0 C223 0.33 223 0.66 223 1 C221.95199219 1.09087891 221.95199219 1.09087891 220.8828125 1.18359375 C219.97273437 1.26738281 219.06265625 1.35117188 218.125 1.4375 C217.22007812 1.51871094 216.31515625 1.59992188 215.3828125 1.68359375 C212.98889139 1.86989285 212.98889139 1.86989285 211 3 C209.9275 2.814375 208.855 2.62875 207.75 2.4375 C203.7909092 1.97560607 201.63491348 2.49284075 198 4 C197.01 3.01 197.01 3.01 196 2 C192.88655807 1.81531118 192.88655807 1.81531118 189.2421875 2.0234375 C188.24761032 2.06097641 188.24761032 2.06097641 187.23294067 2.09927368 C185.11310985 2.18151267 182.99420563 2.27808365 180.875 2.375 C179.43884006 2.43323582 178.00264198 2.49053919 176.56640625 2.546875 C173.04376398 2.68709542 169.5218134 2.840176 166 3 C166 2.67 166 2.34 166 2 C164.9275 2 163.855 2 162.75 2 C160.16666667 2 157.58333333 2 155 2 C154.35160156 2.165 153.70320312 2.33 153.03515625 2.5 C150.75215513 3.06089087 148.7835626 3.06351439 146.4375 3 C143.49552941 2.92062137 141.85325528 3.04891491 139 4 C137.53288081 4.09122428 136.06199283 4.12789652 134.59204102 4.12939453 C133.70424454 4.13254669 132.81644806 4.13569885 131.90174866 4.13894653 C130.94546066 4.1369223 129.98917267 4.13489807 129.00390625 4.1328125 C127.52627052 4.13424759 127.52627052 4.13424759 126.01878357 4.13571167 C123.93496639 4.13639231 121.85114709 4.13454611 119.76733398 4.13037109 C116.57856473 4.12502692 113.3899367 4.13031709 110.20117188 4.13671875 C108.17708302 4.13605784 106.15299426 4.1347764 104.12890625 4.1328125 C103.17464249 4.13483673 102.22037872 4.13686096 101.23719788 4.13894653 C99.90077492 4.13421829 99.90077492 4.13421829 98.53735352 4.12939453 C97.36511986 4.12820114 97.36511986 4.12820114 96.16920471 4.12698364 C94 4 94 4 91.95884705 3.46286011 C89.14777737 2.79862652 86.56811875 3.40778647 83.73779297 3.76904297 C78.18613234 4.2373746 72.61913812 3.82143279 67.0625 3.5625 C64.63672141 3.45957278 62.21094029 3.35670502 59.78515625 3.25390625 C58.72176025 3.20564697 57.65836426 3.1573877 56.56274414 3.10766602 C55.04274687 3.04380789 53.52133808 3 52 3 C48.29745638 2.74928362 44.59602745 2.48446059 40.89453125 2.21875 C37.24662724 2.01385268 33.65214803 1.88862573 30 2 C29.67 2.33 29.34 2.66 29 3 C27.46131039 3.07477534 25.91927215 3.08323597 24.37890625 3.0625 C22.97608398 3.05089844 22.97608398 3.05089844 21.54492188 3.0390625 C19.5605462 3.01307199 17.5761712 2.98703052 15.59179688 2.9609375 C14.65529297 2.95320313 13.71878906 2.94546875 12.75390625 2.9375 C11.89095947 2.92589844 11.0280127 2.91429688 10.13891602 2.90234375 C7.94689276 2.85740615 7.94689276 2.85740615 6 4 C5.34 3.67 4.68 3.34 4 3 C4 2.34 4 1.68 4 1 C2.68 0.67 1.36 0.34 0 0 Z " fill="#242320" transform="translate(122,89)"/>
<path d="M0 0 C2.44756591 0.08772131 4.86613235 0.11532362 7.31347656 0.09765625 C8.44596581 0.09546585 8.44596581 0.09546585 9.60133362 0.0932312 C11.24752704 0.08941755 12.89371633 0.08329301 14.5398941 0.07516479 C17.1672904 0.06237015 19.79463588 0.05587452 22.42205811 0.05102539 C28.9672097 0.03766213 35.51231493 0.01381408 42.05743408 -0.01037598 C82.04808413 -0.15581882 82.04808413 -0.15581882 98.04736328 0.74609375 C103.71249287 1.06059286 109.378434 1.17585609 115.05078125 1.28125 C116.06032867 1.30026367 117.0698761 1.31927734 118.11001587 1.33886719 C122.21268901 1.41359607 126.31544021 1.48322689 130.41821289 1.55224609 C142.96980325 1.76778345 155.47555023 2.12696501 168 3 C168 3.33 168 3.66 168 4 C147.21545815 4.02340209 126.43091849 4.04101502 105.64636612 4.05181217 C95.9948711 4.05695962 86.34338428 4.06397267 76.69189453 4.07543945 C68.27571887 4.08543378 59.85954915 4.0918647 51.44336772 4.09408849 C46.99067241 4.09538755 42.5379941 4.09842221 38.08530426 4.10573006 C33.88617142 4.11256531 29.68706245 4.11460182 25.48792458 4.11310768 C23.95458407 4.11338066 22.42124269 4.11534094 20.88790703 4.11920547 C13.05491868 4.13796315 5.29804754 3.99632185 -2.5046463 3.23480988 C-6.20277699 2.88682009 -9.89750215 2.77458393 -13.609375 2.68359375 C-14.34706116 2.66281265 -15.08474731 2.64203156 -15.8447876 2.62062073 C-18.14645288 2.55647821 -20.44820765 2.49688702 -22.75 2.4375 C-24.33334171 2.39418522 -25.91667515 2.35056744 -27.5 2.30664062 C-31.33324729 2.20094127 -35.16658224 2.0993163 -39 2 C-39 1.67 -39 1.34 -39 1 C-38.16339844 0.97494385 -37.32679688 0.9498877 -36.46484375 0.92407227 C-33.32623274 0.82827164 -30.18775119 0.72908345 -27.04931641 0.62768555 C-25.03686399 0.56367259 -23.0242912 0.5034803 -21.01171875 0.44335938 C-13.0774098 0.20660011 -13.0774098 0.20660011 -5.1875 -0.59765625 C-2 -1 -2 -1 0 0 Z " fill="#2A2926" transform="translate(169,278)"/>
<path d="M0 0 C0.99 0.495 0.99 0.495 2 1 C2.85607761 20.07564246 3.12878419 38.73176102 1.546875 57.78125 C0.89326876 65.78459173 0.61413126 73.78819798 0.375 81.8125 C0.3352002 83.13161377 0.29540039 84.45072754 0.25439453 85.80981445 C0.16540105 88.87311759 0.08021626 91.93645632 0 95 C1.485 95.495 1.485 95.495 3 96 C2.01 96.495 2.01 96.495 1 97 C0.82975764 100.79151478 0.66447298 104.58323092 0.5 108.375 C0.45230469 109.43589844 0.40460938 110.49679688 0.35546875 111.58984375 C0.10854329 117.33967935 -0.0219103 123.0646387 0.00927734 128.81933594 C-0.00300605 131.70657999 -0.19929378 134.56070181 -0.4375 137.4375 C-1.1216942 146.28315354 -1.55603128 155.13951779 -2 164 C-1.34 164.33 -0.68 164.66 0 165 C-0.33 165.65613281 -0.66 166.31226563 -1 166.98828125 C-2.47049529 171.41699949 -2.09012337 175.72487895 -1.921875 180.32226562 C-1.78944086 186.41975431 -2.73494893 190.67474464 -4 197 C-24.79 197 -45.58 197 -67 197 C-67 196.67 -67 196.34 -67 196 C-46.87 195.67 -26.74 195.34 -6 195 C-5.71407731 184.27849154 -5.71407731 184.27849154 -5.43188477 173.55688477 C-5.16567418 163.63386743 -4.79950447 153.71711945 -4.39282227 143.79891968 C-3.88865027 131.43048351 -3.47226298 119.05937254 -3.0625 106.6875 C-3.02086731 105.4369281 -2.97923462 104.1863562 -2.93634033 102.89788818 C-2.22792511 81.56746241 -1.57156604 60.23558069 -0.94224167 38.90268326 C-0.8751948 36.63159863 -0.80786967 34.36052237 -0.74050903 32.08944702 C-0.63451218 28.51093465 -0.5295851 24.93239243 -0.42554283 21.35382271 C-0.36881995 19.40757419 -0.31135126 17.46134745 -0.25386047 15.51512146 C-0.22019882 14.34562454 -0.18653717 13.17612762 -0.15185547 11.97119141 C-0.12235809 10.95747467 -0.09286072 9.94375793 -0.06246948 8.89932251 C0.00146638 5.93194273 0.01072366 2.96797237 0 0 Z " fill="#7A7770" transform="translate(368,87)"/>
<path d="M0 0 C3.62498133 -0.03000048 7.24992951 -0.04712091 10.875 -0.0625 C11.86886719 -0.07087891 12.86273438 -0.07925781 13.88671875 -0.08789062 C19.71256443 -0.10621089 25.47845972 0.07806352 31.29101562 0.47265625 C45.47768111 1.32798173 59.70469312 1.33388799 73.91252565 1.50525212 C78.04046465 1.55586325 82.16834514 1.61087767 86.29623413 1.66539001 C94.08356882 1.76757726 101.87094707 1.86590483 109.65834939 1.96278423 C118.53650945 2.0734258 127.41461093 2.18846379 136.29271054 2.30383885 C154.52841349 2.54072351 172.76418151 2.77219187 191 3 C191 3.66 191 4.32 191 5 C175.42570183 5.04769672 159.8514166 5.08244838 144.27706242 5.10362434 C137.03811692 5.11373809 129.79921837 5.12745097 122.56030273 5.15087891 C92.27040883 5.24686511 62.0199353 5.14042655 31.74609375 4.0546875 C30.52608232 4.0113541 29.3060709 3.96802071 28.04908943 3.92337418 C24.6306706 3.79882699 21.2126475 3.66703642 17.79467773 3.53076172 C16.2983056 3.47346201 16.2983056 3.47346201 14.77170372 3.41500473 C9.780997 3.20202191 4.9294834 2.8144945 0 2 C0 1.34 0 0.68 0 0 Z " fill="#88877F" transform="translate(144,342)"/>
<path d="M0 0 C0 0.66 0 1.32 0 2 C-37.36153057 2.76102673 -74.71807122 3.2420121 -112.08618164 3.53222656 C-118.65968475 3.58389784 -125.233161 3.6387966 -131.80664062 3.69335938 C-144.53773713 3.79858959 -157.26885766 3.9004806 -170 4 C-170 3.34 -170 2.68 -170 2 C-166.78438845 0.92812948 -164.40249827 0.84293496 -161.01928711 0.79467773 C-159.13811188 0.76476746 -159.13811188 0.76476746 -157.21893311 0.73425293 C-155.8217392 0.7171569 -154.42454263 0.70027824 -153.02734375 0.68359375 C-151.55030944 0.66283062 -150.07327906 0.6417864 -148.59625244 0.6204834 C-144.55612854 0.56400946 -140.51594557 0.51480827 -136.47570419 0.46757126 C-133.94216752 0.4375553 -131.40866041 0.40567411 -128.87515259 0.37332153 C-85.9182353 -0.16933723 -42.95942464 -0.09973051 0 0 Z " fill="#B5B2A8" transform="translate(232,44)"/>
<path d="M0 0 C1.4540625 0.0309375 1.4540625 0.0309375 2.9375 0.0625 C2.9375 0.7225 2.9375 1.3825 2.9375 2.0625 C3.86156143 2.06027939 4.78562286 2.05805878 5.73768616 2.05577087 C14.46217807 2.0357024 23.18666219 2.02049245 31.91117191 2.01068783 C36.39611359 2.00547767 40.88103613 1.99841402 45.3659668 1.98706055 C49.69721603 1.9761652 54.0284469 1.9702091 58.35970879 1.96762276 C60.00904059 1.96578047 61.65837144 1.962183 63.30769539 1.95676994 C65.62450427 1.94947122 67.94123804 1.94851277 70.25805664 1.94897461 C71.5748793 1.946754 72.89170197 1.94453339 74.24842834 1.94224548 C77.91326161 2.06170989 81.32517006 2.47292591 84.9375 3.0625 C84.9375 3.3925 84.9375 3.7225 84.9375 4.0625 C6.3975 4.0625 -72.1425 4.0625 -153.0625 4.0625 C-153.0625 3.7325 -153.0625 3.4025 -153.0625 3.0625 C-138.61325489 2.93079286 -124.16399867 2.80036803 -109.71472931 2.67134857 C-103.00284798 2.61139553 -96.29097089 2.55102901 -89.57910156 2.48974609 C-83.08217686 2.43044075 -76.58524326 2.37221288 -70.08830261 2.31468201 C-67.62965053 2.29273074 -65.17100168 2.2704138 -62.71235657 2.24769592 C-59.22556357 2.21554528 -55.73876265 2.18459898 -52.25195312 2.15429688 C-50.59128689 2.13942104 -50.59128689 2.13942104 -48.89707184 2.12424469 C-43.40287585 2.07966526 -37.9101206 2.0597876 -32.41577148 2.08422852 C-31.34334953 2.08829964 -30.27092758 2.09237076 -29.166008 2.09656525 C-27.16844659 2.1060138 -25.17089807 2.11981582 -23.17340851 2.13921356 C-16.78397509 2.1700514 -10.39270704 2.00312017 -4.0625 1.0625 C-3.0625 0.0625 -3.0625 0.0625 0 0 Z " fill="#89867E" transform="translate(259.0625,83.9375)"/>
<path d="M0 0 C0 0.66 0 1.32 0 2 C2.475 2.495 2.475 2.495 5 3 C5 3.33 5 3.66 5 4 C4.18321777 4.0501123 3.36643555 4.10022461 2.52490234 4.15185547 C-1.19230479 4.38460974 -4.90860181 4.6296811 -8.625 4.875 C-9.91019531 4.95363281 -11.19539063 5.03226562 -12.51953125 5.11328125 C-13.76347656 5.19707031 -15.00742187 5.28085937 -16.2890625 5.3671875 C-18.00150146 5.47716064 -18.00150146 5.47716064 -19.74853516 5.58935547 C-23.00716557 5.88624872 -23.00716557 5.88624872 -25.98632812 7.04101562 C-29.50227571 8.1598298 -32.25018171 8.13937249 -35.9296875 7.9765625 C-37.21875 7.925 -38.5078125 7.8734375 -39.8359375 7.8203125 C-41.18230338 7.75545108 -42.52865745 7.69034387 -43.875 7.625 C-45.24474849 7.56668526 -46.61454052 7.50938372 -47.984375 7.453125 C-51.32347963 7.31203607 -54.66178902 7.16065577 -58 7 C-53.91092025 4.87160258 -49.83063703 3.86998306 -45.36328125 2.78125 C-44.58339844 2.5234375 -43.80351562 2.265625 -43 2 C-42.67 1.34 -42.34 0.68 -42 0 C-36.98312541 -0.16829771 -31.96608284 -0.32878159 -26.94873047 -0.48217773 C-25.24358475 -0.53539277 -23.53850308 -0.59070465 -21.83349609 -0.64819336 C-19.37611701 -0.73067981 -16.91860276 -0.80550596 -14.4609375 -0.87890625 C-13.32620499 -0.91945885 -13.32620499 -0.91945885 -12.16854858 -0.96083069 C-7.97732114 -1.07776642 -4.10864365 -0.84389154 0 0 Z " fill="#575652" transform="translate(330,347)"/>
<path d="M0 0 C5.86262876 0.87039028 11.6036383 2.23322508 17.375 3.5625 C18.90833984 3.91344727 18.90833984 3.91344727 20.47265625 4.27148438 C22.98213566 4.8460848 25.49123214 5.42230225 28 6 C28 6.66 28 7.32 28 8 C34.75847968 8.28837416 41.51711923 8.57275742 48.27587891 8.85449219 C50.57051306 8.95059914 52.86511049 9.04758742 55.15966797 9.14550781 C58.47614195 9.28687991 61.7927393 9.4249802 65.109375 9.5625 C66.11925476 9.60624756 67.12913452 9.64999512 68.1696167 9.69506836 C79.73273338 10.16746876 90.99148173 10.01775841 102.5 8.75 C103.71163818 8.62012695 104.92327637 8.49025391 106.17163086 8.35644531 C114.56974439 7.40540177 122.8071894 6.06440073 131.046875 4.18261719 C136.7186627 2.9062209 136.7186627 2.9062209 140 4 C117.85559088 11.26258344 95.24703795 12.48126909 72.125 12.4375 C71.06176514 12.43744965 69.99853027 12.43739929 68.90307617 12.43734741 C52.03622231 12.40040438 35.36999702 11.75600164 18.9375 7.625 C17.6700293 7.33109375 17.6700293 7.33109375 16.37695312 7.03125 C10.59804711 5.62544992 5.35132359 3.58651341 0 1 C0 0.67 0 0.34 0 0 Z " fill="#77736D" transform="translate(166,375)"/>
<path d="M0 0 C68.97 0 137.94 0 209 0 C208.67 1.32 208.34 2.64 208 4 C208 3.34 208 2.68 208 2 C205.66487041 2.32050798 203.33177975 2.65596692 201 3 C200.071875 3.0825 199.14375 3.165 198.1875 3.25 C195.72179422 3.81258803 195.72179422 3.81258803 194.6875 6.5625 C194.3471875 7.7690625 194.3471875 7.7690625 194 9 C192.5393715 6.35261084 192 5.10551666 192 2 C128.64 1.67 65.28 1.34 0 1 C0 0.67 0 0.34 0 0 Z " fill="#5F5E59" transform="translate(159,88)"/>
<path d="M0 0 C0.33 0 0.66 0 1 0 C1.28439197 27.07192776 0.58582439 53.97350353 -1 81 C-1.66 81 -2.32 81 -3 81 C-5.13672496 63.41017488 -5.13672496 63.41017488 -3 57 C-2.90712229 55.31454276 -2.87002796 53.625507 -2.875 51.9375 C-2.87242187 51.05964844 -2.86984375 50.18179688 -2.8671875 49.27734375 C-2.85166576 46.96801734 -2.85166576 46.96801734 -4 45 C-4.99 45.495 -4.99 45.495 -6 46 C-5.10738255 38.60402685 -5.10738255 38.60402685 -4.5 35.1875 C-3.46741863 28.60479378 -2.92683861 22.09949715 -3.125 15.4375 C-3.20488965 9.89315827 -1.88716479 5.17847004 0 0 Z " fill="#282826" transform="translate(366,128)"/>
<path d="M0 0 C0.90105469 0.00902344 1.80210938 0.01804687 2.73046875 0.02734375 C3.41753906 0.03894531 4.10460937 0.05054688 4.8125 0.0625 C5.1425 0.7225 5.4725 1.3825 5.8125 2.0625 C7.22905793 2.0897415 8.64577045 2.10900467 10.0625 2.125 C10.85140625 2.13660156 11.6403125 2.14820313 12.453125 2.16015625 C14.71941002 2.06635306 16.6413895 1.69491063 18.8125 1.0625 C18.8125 1.7225 18.8125 2.3825 18.8125 3.0625 C20.29173446 2.91735591 21.77088296 2.77133578 23.25 2.625 C24.15878906 2.53734375 25.06757812 2.4496875 26.00390625 2.359375 C27.78602514 2.17100082 29.56564354 1.95540695 31.33984375 1.703125 C32.50193359 1.54070312 32.50193359 1.54070312 33.6875 1.375 C34.73550781 1.21451172 34.73550781 1.21451172 35.8046875 1.05078125 C38.26468091 1.06513919 39.71167373 1.8330927 41.8125 3.0625 C41.8125 3.7225 41.8125 4.3825 41.8125 5.0625 C43.1325 5.3925 44.4525 5.7225 45.8125 6.0625 C43.19154866 7.37297567 41.24211982 7.19204447 38.30859375 7.1953125 C37.18300049 7.19748779 36.05740723 7.19966309 34.89770508 7.2019043 C33.6939624 7.19715088 32.49021973 7.19239746 31.25 7.1875 C30.02885498 7.18339111 28.80770996 7.17928223 27.54956055 7.17504883 C-0.13089167 7.00509557 -0.13089167 7.00509557 -8.1875 3.0625 C-8.1875 2.4025 -8.1875 1.7425 -8.1875 1.0625 C-5.17259443 0.05753148 -3.14568308 -0.04085303 0 0 Z " fill="#908E85" transform="translate(92.1875,336.9375)"/>
<path d="M0 0 C0.33 0 0.66 0 1 0 C1.3760538 8.21749578 1.75002744 16.43508293 2.12164211 24.65278053 C2.29442658 28.47234006 2.4678182 32.2918696 2.64282227 36.11132812 C3.52578711 55.39367206 4.29628408 74.67378851 4.90106201 93.96704102 C4.99514098 103.53067306 4.99514098 103.53067306 6 113 C6.99 113.66 7.98 114.32 9 115 C7.35 115 5.7 115 4 115 C2.80028062 111.40084186 2.67716954 107.9935915 2.50390625 104.23828125 C2.44330772 103.00408195 2.44330772 103.00408195 2.38148499 101.74494934 C1.82544901 89.93414178 1.4473949 78.11571118 1.07006836 66.2980957 C0.98302093 63.57727874 0.8928222 60.85659729 0.79956055 58.13598633 C0.13581566 38.74805405 -0.12865745 19.3982443 0 0 Z " fill="#696660" transform="translate(107,165)"/>
<path d="M0 0 C0 1.65 0 3.3 0 5 C-12.24763581 6.31395936 -24.50007953 6.12729224 -36.80078125 6.09765625 C-39.0914863 6.09578798 -41.38219175 6.09436601 -43.67289734 6.09336853 C-49.66178518 6.08957555 -55.65064823 6.07977323 -61.63952637 6.06866455 C-67.76684229 6.05838074 -73.89416228 6.05385606 -80.02148438 6.04882812 C-92.01433372 6.03814766 -104.00716479 6.02111052 -116 6 C-116 5.67 -116 5.34 -116 5 C-91.25 4.67 -66.5 4.34 -41 4 C-41 3.67 -41 3.34 -41 3 C-34.72294862 2.11494937 -28.96964538 2.05834315 -22.671875 2.734375 C-14.26471299 3.57017473 -7.75113308 0 0 0 Z " fill="#3B3935" transform="translate(362,277)"/>
<path d="M0 0 C2.475 0.495 2.475 0.495 5 1 C4.34 6.61 3.68 12.22 3 18 C2.34 18 1.68 18 1 18 C1.33 18.99 1.66 19.98 2 21 C1.5625 23.1875 1.5625 23.1875 1 25 C1.66 25 2.32 25 3 25 C4.39657754 37.6689534 4.35531821 48.61727805 1 61 C0.67 61 0.34 61 0 61 C0 40.87 0 20.74 0 0 Z " fill="#908D84" transform="translate(61,47)"/>
<path d="M0 0 C40.82702359 -0.20638953 40.82702359 -0.20638953 60 1 C56.58158311 3.07583468 53.93393789 3.24574251 49.96875 3.23046875 C48.77403076 3.22917969 47.57931152 3.22789062 46.34838867 3.2265625 C45.07842041 3.21367187 43.80845215 3.20078125 42.5 3.1875 C40.56120972 3.17783203 40.56120972 3.17783203 38.58325195 3.16796875 C28.03572048 3.08428413 17.52439138 2.686107 7 2 C7 2.66 7 3.32 7 4 C-7.19 4 -21.38 4 -36 4 C-36 3.67 -36 3.34 -36 3 C-23.46 2.67 -10.92 2.34 2 2 C1.34 1.34 0.68 0.68 0 0 Z " fill="#343432" transform="translate(212,278)"/>
<path d="M0 0 C29.01368621 -0.16336535 57.99512126 0.2969874 87 1 C83.86315034 3.09123311 83.15973605 3.24943212 79.59204102 3.24291992 C78.70424454 3.24599655 77.81644806 3.24907318 76.90174866 3.25224304 C75.46731667 3.24146477 75.46731667 3.24146477 74.00390625 3.23046875 C73.01881577 3.23001053 72.03372528 3.22955231 71.01878357 3.2290802 C68.9349548 3.22605856 66.85112827 3.2181749 64.76733398 3.20581055 C61.57853177 3.1875916 58.39002063 3.18530065 55.20117188 3.18554688 C53.17708082 3.18063007 51.15299174 3.17480105 49.12890625 3.16796875 C47.6975106 3.16629951 47.6975106 3.16629951 46.23719788 3.16459656 C45.34624924 3.15821671 44.4553006 3.15183685 43.53735352 3.14526367 C42.36511986 3.13954597 42.36511986 3.13954597 41.16920471 3.13371277 C39 3 39 3 36.95835876 2.46186829 C34.15009976 1.79955564 31.57387066 2.4080262 28.74658203 2.76904297 C23.15085753 3.23958122 17.53826267 2.82154644 11.9375 2.5625 C10.69033203 2.51029297 9.44316406 2.45808594 8.15820312 2.40429688 C5.10515269 2.27562425 2.0525154 2.14070861 -1 2 C-0.67 1.34 -0.34 0.68 0 0 Z " fill="#2E2D2D" transform="translate(177,90)"/>
<path d="M0 0 C4.29 0 8.58 0 13 0 C12.01 0.33 11.02 0.66 10 1 C9.67 1.66 9.34 2.32 9 3 C8.175 3.763125 7.35 4.52625 6.5 5.3125 C3.9262406 8.07929136 3.20023165 9.29571451 3 13 C3.33 13.66 3.66 14.32 4 15 C4.23333333 21.53333333 4.23333333 21.53333333 3 24 C3.2475 25.3921875 3.2475 25.3921875 3.5 26.8125 C3.99160861 29.94650486 3.80280246 31.96719072 3 35 C2.67 35 2.34 35 2 35 C1.67 36.98 1.34 38.96 1 41 C0.67 41 0.34 41 0 41 C0 27.47 0 13.94 0 0 Z " fill="#2F2D2A" transform="translate(106,89)"/>
<path d="M0 0 C13.68290082 -0.2032114 27.33203763 0.4160716 41 1 C41 1.33 41 1.66 41 2 C28.13 2.33 15.26 2.66 2 3 C3.485 3.99 3.485 3.99 5 5 C-1.37921052 6.06320175 -9.0171453 6.99142735 -15 4 C-15.99 4 -16.98 4 -18 4 C-18 4.66 -18 5.32 -18 6 C-21.3 6 -24.6 6 -28 6 C-28.33 4.68 -28.66 3.36 -29 2 C-19.43 2 -9.86 2 0 2 C0 1.34 0 0.68 0 0 Z " fill="#B6B3A9" transform="translate(373,44)"/>
<path d="M0 0 C0.75047607 -0.00531738 1.50095215 -0.01063477 2.27416992 -0.01611328 C7.6793161 0.0543161 7.6793161 0.0543161 9.9375 2.3125 C8.1593595 4.7182195 7.04797221 5.28822039 4.09375 5.9375 C-1.42207159 6.62260205 -6.96767409 6.16064531 -12.5 5.875 C-13.61310547 5.82279297 -14.72621094 5.77058594 -15.87304688 5.71679688 C-18.60320323 5.58790537 -21.33291935 5.45297673 -24.0625 5.3125 C-16.2531946 1.34284653 -8.69904007 0.03118922 0 0 Z " fill="#403D39" transform="translate(296.0625,348.6875)"/>
<path d="M0 0 C0.77097015 -0.00014603 1.54194031 -0.00029205 2.33627319 -0.0004425 C4.88477389 0.0002542 7.43320152 0.00803529 9.98168945 0.01586914 C11.74860087 0.01773418 13.51551281 0.01915768 15.28242493 0.02015686 C19.93325223 0.02397527 24.58404831 0.03379981 29.23486328 0.04486084 C33.98054583 0.05508948 38.72623343 0.0596576 43.47192383 0.06469727 C52.7837865 0.07542266 62.09562601 0.092491 71.4074707 0.11352539 C71.4074707 0.44352539 71.4074707 0.77352539 71.4074707 1.11352539 C44.3474707 1.77352539 17.2874707 2.43352539 -10.5925293 3.11352539 C-10.5925293 2.45352539 -10.5925293 1.79352539 -10.5925293 1.11352539 C-6.9998987 -0.08401814 -3.73796323 -0.01846214 0 0 Z " fill="#CDCAC0" transform="translate(72.592529296875,44.886474609375)"/>
<path d="M0 0 C1.4540625 0.0309375 1.4540625 0.0309375 2.9375 0.0625 C2.9375 0.7225 2.9375 1.3825 2.9375 2.0625 C4.32359215 2.05916908 4.32359215 2.05916908 5.73768616 2.05577087 C14.46217807 2.0357024 23.18666219 2.02049245 31.91117191 2.01068783 C36.39611359 2.00547767 40.88103613 1.99841402 45.3659668 1.98706055 C49.69721603 1.9761652 54.0284469 1.9702091 58.35970879 1.96762276 C60.00904059 1.96578047 61.65837144 1.962183 63.30769539 1.95676994 C65.62450427 1.94947122 67.94123804 1.94851277 70.25805664 1.94897461 C71.5748793 1.946754 72.89170197 1.94453339 74.24842834 1.94224548 C77.91326161 2.06170989 81.32517006 2.47292591 84.9375 3.0625 C84.9375 3.3925 84.9375 3.7225 84.9375 4.0625 C75.29517744 4.0859371 65.65286507 4.10357162 56.01051998 4.11431217 C51.53052178 4.11947376 47.05054342 4.12644487 42.57055664 4.13793945 C23.33548475 4.18604092 4.14730672 4.20937343 -15.0625 3.0625 C-15.0625 2.7325 -15.0625 2.4025 -15.0625 2.0625 C-14.28003906 2.00191406 -13.49757812 1.94132812 -12.69140625 1.87890625 C-11.67949219 1.79511719 -10.66757813 1.71132812 -9.625 1.625 C-8.61566406 1.54378906 -7.60632813 1.46257812 -6.56640625 1.37890625 C-3.37093261 0.97511005 -3.41885129 0.06977248 0 0 Z " fill="#95918A" transform="translate(259.0625,83.9375)"/>
<path d="M0 0 C6.27 0 12.54 0 19 0 C18.67 0.99 18.34 1.98 18 3 C15.59418489 3.89693107 13.35392165 4.5795965 10.875 5.1875 C10.22273438 5.36474609 9.57046875 5.54199219 8.8984375 5.72460938 C3.25733288 7.17405987 -2.3463266 7.80917549 -8 6 C-8 5.34 -8 4.68 -8 4 C-4.7 3.34 -1.4 2.68 2 2 C1.34 1.34 0.68 0.68 0 0 Z " fill="#656460" transform="translate(269,347)"/>
<path d="M0 0 C0.33 0 0.66 0 1 0 C1 2.97 1 5.94 1 9 C1.99 9.33 2.98 9.66 4 10 C3.01 10.495 3.01 10.495 2 11 C1.82975764 14.79151478 1.66447298 18.58323092 1.5 22.375 C1.42845703 23.96634766 1.42845703 23.96634766 1.35546875 25.58984375 C1.10805472 31.35105611 0.95365113 37.08694984 1.03125 42.85351562 C0.98586439 45.97093973 0.53369342 48.93126281 0 52 C-0.33 52 -0.66 52 -1 52 C-3.65891473 10.97674419 -3.65891473 10.97674419 0 0 Z " fill="#848179" transform="translate(367,173)"/>
<path d="M0 0 C-5.70867847 5.70867847 -13.37532997 4.93794443 -21 5 C-26.34689047 4.86240864 -31.67245158 4.46049288 -37 4 C-37 3.34 -37 2.68 -37 2 C-33.78020332 0.92673444 -31.50679114 0.90029203 -28.125 0.9375 C-26.97515625 0.94523437 -25.8253125 0.95296875 -24.640625 0.9609375 C-22.21354167 0.98697917 -19.78645833 1.01302083 -17.359375 1.0390625 C-16.20953125 1.04679687 -15.0596875 1.05453125 -13.875 1.0625 C-12.29332031 1.07990234 -12.29332031 1.07990234 -10.6796875 1.09765625 C-6.96568233 0.96230621 -3.79804552 -0.10264988 0 0 Z " fill="#93908A" transform="translate(392,343)"/>
<path d="M0 0 C5.86262876 0.87039028 11.6036383 2.23322508 17.375 3.5625 C18.90833984 3.91344727 18.90833984 3.91344727 20.47265625 4.27148438 C22.98213566 4.8460848 25.49123214 5.42230225 28 6 C28 6.66 28 7.32 28 8 C29.90072266 8.07347656 29.90072266 8.07347656 31.83984375 8.1484375 C33.53908096 8.22354191 35.23829876 8.29908632 36.9375 8.375 C37.76830078 8.4059375 38.59910156 8.436875 39.45507812 8.46875 C45.18247369 8.73617703 50.43358471 9.61822587 56 11 C56 11.33 56 11.66 56 12 C43.39083827 12.15532002 31.20163775 10.49263595 18.9375 7.625 C18.08196533 7.42817627 17.22643066 7.23135254 16.3449707 7.02856445 C10.58012773 5.61446156 5.34130893 3.58167291 0 1 C0 0.67 0 0.34 0 0 Z " fill="#817E78" transform="translate(166,375)"/>
<path d="M0 0 C2.7735893 -0.1953745 5.30788515 -0.20701158 8.0703125 -0.07421875 C8.86654022 -0.04777786 9.66276794 -0.02133698 10.48312378 0.00590515 C13.03116632 0.09381554 15.57780663 0.20290977 18.125 0.3125 C19.85020985 0.37574368 21.57547078 0.43761024 23.30078125 0.49804688 C27.53461272 0.64937943 31.76730642 0.81971744 36 1 C36 1.33 36 1.66 36 2 C39.3 2.33 42.6 2.66 46 3 C46 3.33 46 3.66 46 4 C40.12842107 4.02477942 34.25687282 4.04289766 28.38525391 4.05493164 C26.38915476 4.05995022 24.39305927 4.06676651 22.39697266 4.07543945 C19.52245174 4.08761356 16.64797956 4.09325316 13.7734375 4.09765625 C12.44184097 4.10539818 12.44184097 4.10539818 11.08334351 4.11329651 C6.60399758 4.11369908 2.40928862 3.9115053 -2 3 C-1.34 2.01 -0.68 1.02 0 0 Z " fill="#494540" transform="translate(118,277)"/>
<path d="M0 0 C0.33 0.66 0.66 1.32 1 2 C1.66 2.33 2.32 2.66 3 3 C3.02719556 5.37507855 3.04693247 7.74983964 3.0625 10.125 C3.07087891 10.79015625 3.07925781 11.4553125 3.08789062 12.140625 C3.10782292 16.20681354 2.78890161 20.0120092 2 24 C2.66 24.33 3.32 24.66 4 25 C3.67 25.66 3.34 26.32 3 27 C4.32 27.66 5.64 28.32 7 29 C7 29.33 7 29.66 7 30 C5.00045254 30.04254356 2.99958364 30.04080783 1 30 C-1.60433151 27.39566849 -0.49274197 20.20595262 -0.625 16.6875 C-0.6765625 15.53314453 -0.728125 14.37878906 -0.78125 13.18945312 C-0.82507813 12.07892578 -0.86890625 10.96839844 -0.9140625 9.82421875 C-0.9548291 8.80416748 -0.9955957 7.78411621 -1.03759766 6.7331543 C-1.00384766 4.27970479 -0.72028666 2.33171059 0 0 Z " fill="#312F2A" transform="translate(112,249)"/>
<path d="M0 0 C0.33 0 0.66 0 1 0 C1.31435689 2.14556209 1.62638183 4.29146588 1.9375 6.4375 C2.11152344 7.63246094 2.28554687 8.82742187 2.46484375 10.05859375 C2.64144531 11.35925781 2.81804687 12.65992188 3 14 C3.08830078 14.63200317 3.17660156 15.26400635 3.26757812 15.91516113 C4.09400313 22.4422876 4.1281368 28.90054456 4.09765625 35.47265625 C4.0962413 36.6363121 4.09482635 37.79996796 4.09336853 38.99888611 C4.08780628 42.68678443 4.07526083 46.37462027 4.0625 50.0625 C4.05748012 52.57486891 4.05291807 55.08723878 4.04882812 57.59960938 C4.03784923 63.73309395 4.02114903 69.86654251 4 76 C3.67 76 3.34 76 3 76 C2.97716446 75.34791061 2.95432892 74.69582123 2.93080139 74.02397156 C2.69100348 67.19350059 2.446925 60.36319182 2.20043945 53.53295898 C2.10918764 50.98905227 2.01900143 48.44510709 1.92993164 45.90112305 C1.80119273 42.22954677 1.66853224 38.55812916 1.53515625 34.88671875 C1.49656998 33.76230881 1.4579837 32.63789886 1.41822815 31.47941589 C1.19305203 25.39285174 0.81851018 19.35380511 0.20947266 13.29309082 C-0.04938151 10.45942214 -0.09943916 7.65681501 -0.0625 4.8125 C-0.05347656 3.89082031 -0.04445313 2.96914062 -0.03515625 2.01953125 C-0.02355469 1.35308594 -0.01195313 0.68664062 0 0 Z " fill="#88857B" transform="translate(104,142)"/>
<path d="M0 0 C1.29683212 0.00141495 2.59366425 0.0028299 3.92979431 0.00428772 C7.34754426 0.00807308 10.7652505 0.01786848 14.1829834 0.0289917 C17.6825298 0.03929228 21.18208338 0.04380371 24.68164062 0.04882812 C31.52605942 0.05949506 38.37044948 0.07652255 45.21484375 0.09765625 C45.21484375 0.42765625 45.21484375 0.75765625 45.21484375 1.09765625 C31.68484375 1.42765625 18.15484375 1.75765625 4.21484375 2.09765625 C4.21484375 2.42765625 4.21484375 2.75765625 4.21484375 3.09765625 C-4.69515625 2.76765625 -13.60515625 2.43765625 -22.78515625 2.09765625 C-22.78515625 1.76765625 -22.78515625 1.43765625 -22.78515625 1.09765625 C-15.16424953 0.06316022 -7.68404121 -0.03187805 0 0 Z " fill="#929289" transform="translate(209.78515625,343.90234375)"/>
<path d="M0 0 C0.66 0.66 1.32 1.32 2 2 C1.34 3.32 0.68 4.64 0 6 C5.37625234 6.84888195 9.65370398 7.0024305 15 6 C15.33 4.35 15.66 2.7 16 1 C16.66 1.33 17.32 1.66 18 2 C18.375 4.25 18.375 4.25 18 7 C14.38481712 10.52004649 11.51101804 11.24305963 6.625 11.25 C5.08239763 11.18629371 3.54002456 11.10956696 2 11 C1.34 9.68 0.68 8.36 0 7 C-0.66 7 -1.32 7 -2 7 C-2.125 4.625 -2.125 4.625 -2 2 C-1.34 1.34 -0.68 0.68 0 0 Z " fill="#8F8C84" transform="translate(272,327)"/>
<path d="M0 0 C0.33 0 0.66 0 1 0 C1.11916117 13.70903428 0.95629291 27.32159605 0 41 C-0.66 41 -1.32 41 -2 41 C-4.13672496 23.41017488 -4.13672496 23.41017488 -2 17 C-1.98054012 15.22915104 -2.00619102 13.45756046 -2.0625 11.6875 C-2.11392746 7.3790216 -1.73422656 4.01039892 0 0 Z " fill="#1B1B18" transform="translate(365,168)"/>
<path d="M0 0 C0.79921875 0.00902344 1.5984375 0.01804687 2.421875 0.02734375 C3.02515625 0.03894531 3.6284375 0.05054687 4.25 0.0625 C4.58 2.0425 4.91 4.0225 5.25 6.0625 C4.26 6.0625 3.27 6.0625 2.25 6.0625 C1.26 6.3925 0.27 6.7225 -0.75 7.0625 C-2.14439664 7.12915376 -3.54169875 7.14788199 -4.9375 7.125 C-6.8246875 7.0940625 -6.8246875 7.0940625 -8.75 7.0625 C-8.75 5.0825 -8.75 3.1025 -8.75 1.0625 C-5.75519083 0.1901588 -3.11424089 -0.04579766 0 0 Z " fill="#989487" transform="translate(157.75,72.9375)"/>
<path d="M0 0 C0.99 0 1.98 0 3 0 C3.33 1.32 3.66 2.64 4 4 C4.598125 3.835 5.19625 3.67 5.8125 3.5 C8 3 8 3 11 3 C11.33 3.66 11.66 4.32 12 5 C12.33 4.34 12.66 3.68 13 3 C13.66 3 14.32 3 15 3 C14.125 7.875 14.125 7.875 13 9 C10.98035801 9.07244053 8.95832876 9.08377188 6.9375 9.0625 C5.28041016 9.04896484 5.28041016 9.04896484 3.58984375 9.03515625 C2.73519531 9.02355469 1.88054687 9.01195313 1 9 C0.67 6.03 0.34 3.06 0 0 Z " fill="#827E73" transform="translate(114,71)"/>
<path d="M0 0 C0.66 0 1.32 0 2 0 C1.34 11.88 0.68 23.76 0 36 C-0.66 36 -1.32 36 -2 36 C-1.979375 34.906875 -1.95875 33.81375 -1.9375 32.6875 C-1.81455548 29.05615809 -1.81455548 29.05615809 -3 26 C-2.505 24.515 -2.505 24.515 -2 23 C-2.32205743 20.66508361 -2.65458149 18.33157492 -3 16 C-2.67 15.67 -2.34 15.34 -2 15 C-1.60056824 12.47804033 -1.24920152 9.97036344 -0.9375 7.4375 C-0.84662109 6.72658203 -0.75574219 6.01566406 -0.66210938 5.28320312 C-0.43760497 3.52261597 -0.21831603 1.76136522 0 0 Z " fill="#999791" transform="translate(404,288)"/>
<path d="M0 0 C0.66 0 1.32 0 2 0 C2.04487549 1.11036621 2.08975098 2.22073242 2.13598633 3.36474609 C2.30598259 7.47663106 2.49494012 11.5874617 2.68969727 15.69824219 C2.77139089 17.47893587 2.84791119 19.25987463 2.91918945 21.04101562 C3.02242765 23.59847496 3.14412595 26.15448135 3.26953125 28.7109375 C3.29779495 29.50994476 3.32605865 30.30895203 3.35517883 31.13217163 C3.45495832 33.61506335 3.45495832 33.61506335 4 37 C4.99 37.66 5.98 38.32 7 39 C5.35 39 3.7 39 2 39 C0.71681754 35.15045261 0.63129466 31.39454798 0.4375 27.375 C0.3950415 26.5399292 0.35258301 25.7048584 0.30883789 24.84448242 C-0.07914702 16.56096547 -0.09553455 8.29027585 0 0 Z " fill="#7A776E" transform="translate(109,241)"/>
<path d="M0 0 C0.99 0.495 0.99 0.495 2 1 C2.16925032 5.80118257 2.32961243 10.6025551 2.48217773 15.40429688 C2.53514643 17.03360741 2.59043267 18.66284449 2.64819336 20.29199219 C2.95402468 28.96164527 3.17595419 37.37633598 2 46 C1.67 46 1.34 46 1 46 C-0.192371 36.27148934 -0.11514301 26.59317383 -0.0625 16.8125 C-0.05747294 15.17643367 -0.05291217 13.54036583 -0.04882812 11.90429688 C-0.03792277 7.93616014 -0.0207253 3.96809709 0 0 Z " fill="#878379" transform="translate(368,87)"/>
<path d="M0 0 C1.65 0 3.3 0 5 0 C4.67 0.763125 4.34 1.52625 4 2.3125 C2.82563314 4.99069135 2.82563314 4.99069135 3 8 C3 8.66 3 9.32 3 10 C5.97 10.495 5.97 10.495 9 11 C8.979375 12.11375 8.95875 13.2275 8.9375 14.375 C8.73619282 17.83215921 8.73619282 17.83215921 10 20 C7.30354986 19.63856094 6.27140224 19.35462226 4.5859375 17.15234375 C4.18632812 16.42144531 3.78671875 15.69054687 3.375 14.9375 C2.21767599 12.76522953 2.21767599 12.76522953 1 11 C0.34 11 -0.32 11 -1 11 C-0.67 7.37 -0.34 3.74 0 0 Z " fill="#817E7B" transform="translate(140,345)"/>
<path d="M0 0 C0.33 0 0.66 0 1 0 C1.0248244 4.5898398 1.04291873 9.17964001 1.05493164 13.76953125 C1.05994272 15.32910849 1.06675337 16.88868108 1.07543945 18.44824219 C1.08764686 20.69727736 1.09326068 22.9462501 1.09765625 25.1953125 C1.10281754 25.8861795 1.10797882 26.57704651 1.11329651 27.28884888 C1.11375529 31.29915055 0.7735266 35.06545295 0 39 C-2.18251747 35.46614227 -2.25760629 32.58500409 -2.265625 28.4765625 C-2.26820313 27.208125 -2.27078125 25.9396875 -2.2734375 24.6328125 C-2.26924805 23.97442383 -2.26505859 23.31603516 -2.26074219 22.63769531 C-2.2500731 20.63869587 -2.26167872 18.63961833 -2.2734375 16.640625 C-2.27085937 15.36960938 -2.26828125 14.09859375 -2.265625 12.7890625 C-2.26336914 11.63100098 -2.26111328 10.47293945 -2.25878906 9.27978516 C-1.99166259 5.89433518 -1.20731848 3.16216731 0 0 Z " fill="#21201D" transform="translate(366,128)"/>
<path d="M0 0 C11.53301735 -0.88338005 19.63125303 1.05829932 30 6 C30 6.33 30 6.66 30 7 C23.92858084 7.56478318 19.06350166 5.90050054 13.3125 4.0234375 C8.92940733 2.66922726 4.51676565 1.7748853 0 1 C0 0.67 0 0.34 0 0 Z " fill="#3B3A39" transform="translate(178,347)"/>
<path d="M0 0 C9.9 0 19.8 0 30 0 C29.01 0.495 29.01 0.495 28 1 C28 1.66 28 2.32 28 3 C21.4 3 14.8 3 8 3 C8 2.34 8 1.68 8 1 C5.36 1 2.72 1 0 1 C0 0.67 0 0.34 0 0 Z " fill="#9A9993" transform="translate(327,344)"/>
<path d="M0 0 C3.39053755 2.95282471 4.57725502 5.06053202 5.5 9.4375 C6.56478601 13.83783112 7.72509211 16.72509211 11 20 C8.09396023 19.6886386 7.06419143 19.06619741 5 16.9375 C-1.13737374 7.92323232 -1.13737374 7.92323232 -0.75 2.5 C-0.5025 1.675 -0.255 0.85 0 0 Z " fill="#A8A7A3" transform="translate(140,354)"/>
<path d="M0 0 C-0.598125 0.556875 -1.19625 1.11375 -1.8125 1.6875 C-4.083055 3.90542791 -4.083055 3.90542791 -5.5 6.625 C-7.14550335 9.2303803 -8.12276909 10.01095187 -11 11 C-11.99 11 -12.98 11 -14 11 C-14 11.66 -14 12.32 -14 13 C-15.98 13.66 -17.96 14.32 -20 15 C-17.37283063 12.14102157 -15.40839992 10.17617251 -11.8125 8.625 C-8.62120626 7.17910763 -8.62120626 7.17910763 -7.625 3.3125 C-7.41875 2.219375 -7.2125 1.12625 -7 0 C-2.25 -1.125 -2.25 -1.125 0 0 Z " fill="#78766F" transform="translate(341,359)"/>
<path d="M0 0 C8.09242487 0.2780902 14.67034602 1.51354954 22 5 C22 5.33 22 5.66 22 6 C13.61214729 6.83507383 7.51358897 4.61478507 0 1 C0 0.67 0 0.34 0 0 Z " fill="#7A7976" transform="translate(193,347)"/>
<path d="M0 0 C0.33 0 0.66 0 1 0 C2.10899217 9.86103846 1.79473764 18.24018707 0 28 C-0.33 28 -0.66 28 -1 28 C-1.22730289 24.45928579 -1.42844022 20.91754334 -1.625 17.375 C-1.68945312 16.37597656 -1.75390625 15.37695312 -1.8203125 14.34765625 C-2.09829231 9.10078735 -2.19579577 4.91120734 0 0 Z " fill="#1D1C19" transform="translate(363,215)"/>
<path d="M0 0 C0.66 0 1.32 0 2 0 C2.36272727 6.40818182 2.36272727 6.40818182 0.8125 8.9375 C-1.56041618 10.32851983 -3.29686424 10.21917317 -6 10 C-5.34 8.02 -4.68 6.04 -4 4 C-3.34 4 -2.68 4 -2 4 C-1.34 2.68 -0.68 1.36 0 0 Z " fill="#5C5B57" transform="translate(340,349)"/>
<path d="M0 0 C0.77988281 -0.01417969 1.55976563 -0.02835937 2.36328125 -0.04296875 C4.8907668 0.20765587 6.50468031 0.92376228 8.6875 2.1875 C5.97348706 3.54450647 3.83903684 3.2998861 0.8046875 3.28515625 C-0.36191406 3.28193359 -1.52851562 3.27871094 -2.73046875 3.27539062 C-3.95378906 3.26701172 -5.17710938 3.25863281 -6.4375 3.25 C-7.66855469 3.24548828 -8.89960937 3.24097656 -10.16796875 3.23632812 C-13.21619392 3.2245133 -16.26432314 3.20804028 -19.3125 3.1875 C-19.3125 2.8575 -19.3125 2.5275 -19.3125 2.1875 C-18.31347656 2.12691406 -17.31445312 2.06632812 -16.28515625 2.00390625 C-14.99480469 1.92011719 -13.70445313 1.83632813 -12.375 1.75 C-11.08722656 1.66878906 -9.79945312 1.58757812 -8.47265625 1.50390625 C-5.12985627 1.16921305 -3.47737616 0.02845643 0 0 Z " fill="#787671" transform="translate(129.3125,340.8125)"/>
<path d="M0 0 C2 1 2 1 3.1484375 2.91796875 C4.39745982 7.43851282 3.95319651 11.66851943 3.625 16.3125 C3.56828125 17.24384766 3.5115625 18.17519531 3.453125 19.13476562 C3.31224774 21.42402103 3.16090171 23.7120794 3 26 C2.67 26 2.34 26 2 26 C1.34 17.42 0.68 8.84 0 0 Z " fill="#939188" transform="translate(70,283)"/>
<path d="M0 0 C0.66 0 1.32 0 2 0 C2.14285714 7.42857143 2.14285714 7.42857143 1 11 C1.66 11 2.32 11 3 11 C3.05422947 12.4370809 3.09289723 13.87475462 3.125 15.3125 C3.14820313 16.11300781 3.17140625 16.91351563 3.1953125 17.73828125 C3 20 3 20 1 23 C1 20.03 1 17.06 1 14 C0.34 14 -0.32 14 -1 14 C-1.08333357 9.1666528 -0.95261487 4.76307437 0 0 Z " fill="#33312E" transform="translate(360,253)"/>
<path d="M0 0 C-0.33 1.32 -0.66 2.64 -1 4 C0.32 4.33 1.64 4.66 3 5 C-1.64069102 6.30891285 -5.63227759 5.73588321 -10.3125 5.0625 C-11.05306641 4.96259766 -11.79363281 4.86269531 -12.55664062 4.75976562 C-14.37209637 4.51380065 -16.18620071 4.25789626 -18 4 C-18 3.67 -18 3.34 -18 3 C-17.07767578 2.90912109 -17.07767578 2.90912109 -16.13671875 2.81640625 C-15.32847656 2.73261719 -14.52023438 2.64882813 -13.6875 2.5625 C-12.48673828 2.44068359 -12.48673828 2.44068359 -11.26171875 2.31640625 C-8.83912821 2.04734307 -8.83912821 2.04734307 -6 1 C-3 0 -3 0 0 0 Z " fill="#98958E" transform="translate(111,338)"/>
<path d="M0 0 C9.24 0 18.48 0 28 0 C28 0.33 28 0.66 28 1 C26.95199219 1.09087891 26.95199219 1.09087891 25.8828125 1.18359375 C24.97273438 1.26738281 24.06265625 1.35117188 23.125 1.4375 C22.22007812 1.51871094 21.31515625 1.59992188 20.3828125 1.68359375 C17.98889139 1.86989285 17.98889139 1.86989285 16 3 C14.39125 2.7215625 14.39125 2.7215625 12.75 2.4375 C8.7909092 1.97560607 6.63491348 2.49284075 3 4 C1 2 1 2 0 0 Z " fill="#33322E" transform="translate(317,89)"/>
<path d="M0 0 C0 0.66 0 1.32 0 2 C1.65 2.33 3.3 2.66 5 3 C5 3.33 5 3.66 5 4 C0.05 4 -4.9 4 -10 4 C-10 2.68 -10 1.36 -10 0 C-6.42355152 -1.2380014 -3.66305234 -0.74926071 0 0 Z " fill="#5E5D59" transform="translate(330,347)"/>
<path d="M0 0 C2.62391705 2.62391705 2.41250214 4.15638093 2.6875 7.8125 C2.77386719 8.85019531 2.86023438 9.88789062 2.94921875 10.95703125 C2.99708962 13.82560084 2.68244277 16.22404858 2 19 C1.67 19 1.34 19 1 19 C0.67 20.98 0.34 22.96 0 25 C-0.33 25 -0.66 25 -1 25 C-1.0271045 21.95827281 -1.04688964 18.91679003 -1.0625 15.875 C-1.07087891 15.0190625 -1.07925781 14.163125 -1.08789062 13.28125 C-1.10538306 8.73321589 -0.93192358 4.47616836 0 0 Z " fill="#35322E" transform="translate(107,105)"/>
<path d="M0 0 C0.66 0 1.32 0 2 0 C2.22223194 2.74086056 2.34781139 4.43963721 0.875 6.8125 C-1.91333817 8.57844751 -3.76728968 8.46181576 -7 8 C-9.375 6 -9.375 6 -11 4 C-10.67 3.01 -10.34 2.02 -10 1 C-9.34 1 -8.68 1 -8 1 C-7.67 1.99 -7.34 2.98 -7 4 C-5.02 4 -3.04 4 -1 4 C-0.67 2.68 -0.34 1.36 0 0 Z " fill="#929086" transform="translate(214,328)"/>
<path d="M0 0 C2.475 0.495 2.475 0.495 5 1 C5 9.91 5 18.82 5 28 C4.67 28 4.34 28 4 28 C3.67 20.74 3.34 13.48 3 6 C2.34 6 1.68 6 1 6 C0.67 4.02 0.34 2.04 0 0 Z " fill="#9D9A93" transform="translate(410,47)"/>
<path d="M0 0 C9.9 0.33 19.8 0.66 30 1 C29.67 1.66 29.34 2.32 29 3 C28.37432129 2.99476318 27.74864258 2.98952637 27.10400391 2.98413086 C24.27767943 2.96338382 21.45137095 2.95034714 18.625 2.9375 C17.64015625 2.92912109 16.6553125 2.92074219 15.640625 2.91210938 C14.69960937 2.90888672 13.75859375 2.90566406 12.7890625 2.90234375 C11.91975098 2.89710693 11.05043945 2.89187012 10.15478516 2.88647461 C7.94950006 2.85877649 7.94950006 2.85877649 6 4 C5.34 3.67 4.68 3.34 4 3 C4 2.34 4 1.68 4 1 C2.68 0.67 1.36 0.34 0 0 Z " fill="#2F2D2B" transform="translate(122,89)"/>
<path d="M0 0 C0.33 0 0.66 0 1 0 C1.12375 0.94875 1.2475 1.8975 1.375 2.875 C1.71687177 6.08667191 1.71687177 6.08667191 4 8 C4.22705078 9.87939453 4.22705078 9.87939453 4.1953125 12.1328125 C4.18886719 12.93847656 4.18242188 13.74414062 4.17578125 14.57421875 C4.15902344 15.41597656 4.14226562 16.25773437 4.125 17.125 C4.11597656 17.97449219 4.10695313 18.82398438 4.09765625 19.69921875 C4.07405647 21.79959884 4.03818483 23.89983444 4 26 C3.34 26.33 2.68 26.66 2 27 C1.93941406 26.09636719 1.87882812 25.19273437 1.81640625 24.26171875 C1.73261719 23.08222656 1.64882812 21.90273437 1.5625 20.6875 C1.48128906 19.51574219 1.40007812 18.34398437 1.31640625 17.13671875 C1.1132629 13.97409042 1.1132629 13.97409042 0 11 C-0.0685495 9.10529184 -0.08480372 7.2083166 -0.0625 5.3125 C-0.05347656 4.31863281 -0.04445313 3.32476562 -0.03515625 2.30078125 C-0.02355469 1.54152344 -0.01195313 0.78226562 0 0 Z " fill="#2A2827" transform="translate(107,118)"/>
<path d="M0 0 C7.26 0 14.52 0 22 0 C19.81337338 2.18662662 18.96040811 2.48646678 16 3 C13.23123519 2.91382359 10.50834926 2.77449327 7.75 2.5625 C7.00492187 2.51029297 6.25984375 2.45808594 5.4921875 2.40429688 C3.66105139 2.2751783 1.83046187 2.13834886 0 2 C0 1.34 0 0.68 0 0 Z " fill="#888680" transform="translate(355,345)"/>
<path d="M0 0 C0.33 0 0.66 0 1 0 C0.67 5.94 0.34 11.88 0 18 C-1.32 18.33 -2.64 18.66 -4 19 C-3.71729594 16.58197805 -3.42420736 14.1659878 -3.125 11.75 C-3.04636719 11.06808594 -2.96773438 10.38617188 -2.88671875 9.68359375 C-2.43354167 6.09303689 -1.90614262 3.107493 0 0 Z " fill="#575652" transform="translate(368,93)"/>
<path d="M0 0 C-6.14937199 4.09958133 -13.6866043 5.48755971 -21 5 C-21 4.34 -21 3.68 -21 3 C-20.15695312 2.86722656 -19.31390625 2.73445313 -18.4453125 2.59765625 C-17.34960938 2.42105469 -16.25390625 2.24445313 -15.125 2.0625 C-13.48917969 1.80146484 -13.48917969 1.80146484 -11.8203125 1.53515625 C-3.39827586 -0.06293103 -3.39827586 -0.06293103 0 0 Z " fill="#7E7D7A" transform="translate(286,349)"/>
<path d="M0 0 C0.99 0.33 1.98 0.66 3 1 C2.67 1.99 2.34 2.98 2 4 C2.66 4 3.32 4 4 4 C4.33 3.34 4.66 2.68 5 2 C4.88652381 3.97986082 4.7589065 5.95891598 4.625 7.9375 C4.55539063 9.03964844 4.48578125 10.14179688 4.4140625 11.27734375 C4.27742188 12.17582031 4.14078125 13.07429687 4 14 C3.01 14.495 3.01 14.495 2 15 C0.53329887 9.77487721 -0.22577402 5.4185766 0 0 Z " fill="#282825" transform="translate(108,175)"/>
<path d="M0 0 C0.99 0 1.98 0 3 0 C6 5.625 6 5.625 6 9 C5.34 9 4.68 9 4 9 C3.67 8.67 3.34 8.34 3 8 C3 8.66 3 9.32 3 10 C2.01 10 1.02 10 0 10 C0 6.7 0 3.4 0 0 Z " fill="#938D80" transform="translate(107,70)"/>
<path d="M0 0 C1.0625 1.875 1.0625 1.875 2 4 C1.67 4.66 1.34 5.32 1 6 C-1.97 6 -4.94 6 -8 6 C-8.66 4.68 -9.32 3.36 -10 2 C-8.72125 2.04125 -7.4425 2.0825 -6.125 2.125 C-3.98128508 2.24212873 -3.98128508 2.24212873 -2 2 C-1.34 1.34 -0.68 0.68 0 0 Z " fill="#979589" transform="translate(190,329)"/>
<path d="M0 0 C1.97603502 7.09047862 2.16277768 14.6750043 2 22 C1.34 21.67 0.68 21.34 0 21 C-0.6328125 18.015625 -0.6328125 18.015625 -1.125 14.25 C-1.29257813 13.01765625 -1.46015625 11.7853125 -1.6328125 10.515625 C-2.23082508 4.78997267 -2.23082508 4.78997267 -2 2 C-1.34 1.34 -0.68 0.68 0 0 Z " fill="#292726" transform="translate(111,201)"/>
<path d="M0 0 C0.66 0.99 1.32 1.98 2 3 C-2 9.57142857 -2 9.57142857 -6 11 C-4.88059018 6.14922412 -3.8665284 3.222107 0 0 Z " fill="#A5A5A1" transform="translate(342,360)"/>
<path d="M0 0 C0.66 0.66 1.32 1.32 2 2 C1.34 3.32 0.68 4.64 0 6 C2.97 6.495 2.97 6.495 6 7 C5.01 7.33 4.02 7.66 3 8 C3 8.66 3 9.32 3 10 C5.97 10 8.94 10 12 10 C12 10.33 12 10.66 12 11 C8.7 11 5.4 11 2 11 C1.34 9.68 0.68 8.36 0 7 C-0.66 7 -1.32 7 -2 7 C-2.125 4.625 -2.125 4.625 -2 2 C-1.34 1.34 -0.68 0.68 0 0 Z " fill="#97948C" transform="translate(272,327)"/>
<path d="M0 0 C0.33 0 0.66 0 1 0 C1.19534474 2.41626418 1.38153404 4.83265229 1.5625 7.25 C1.61857422 7.93191406 1.67464844 8.61382812 1.73242188 9.31640625 C1.98186254 12.7420581 2.13879745 15.72701177 1 19 C1.66 19 2.32 19 3 19 C2.34 21.97 1.68 24.94 1 28 C0.67 28 0.34 28 0 28 C0 18.76 0 9.52 0 0 Z " fill="#96968D" transform="translate(61,53)"/>
<path d="M0 0 C2.64 0 5.28 0 8 0 C8.93423645 3.01031744 9.04449911 3.86650268 8 7 C6.68 7 5.36 7 4 7 C4 6.34 4 5.68 4 5 C3.34 4.67 2.68 4.34 2 4 C2.33 3.01 2.66 2.02 3 1 C2.01 0.67 1.02 0.34 0 0 Z " fill="#A59E90" transform="translate(134,281)"/>
<path d="M0 0 C0.33 0 0.66 0 1 0 C1.06058594 0.90621094 1.12117188 1.81242188 1.18359375 2.74609375 C1.64952423 9.52000612 2.18641453 16.25886322 3 23 C2.01 23.33 1.02 23.66 0 24 C0 16.08 0 8.16 0 0 Z " fill="#1C1B18" transform="translate(108,151)"/>
<path d="M0 0 C0.66 0.33 1.32 0.66 2 1 C1.67 2.65 1.34 4.3 1 6 C-7.57142857 7.42857143 -7.57142857 7.42857143 -11 5 C-10.67 4.01 -10.34 3.02 -10 2 C-8.515 2.99 -8.515 2.99 -7 4 C-3.87478167 4.16699232 -3.87478167 4.16699232 -1 4 C-0.67 2.68 -0.34 1.36 0 0 Z " fill="#918E85" transform="translate(240,329)"/>
<path d="M0 0 C1.98 0 3.96 0 6 0 C5.979375 1.11375 5.95875 2.2275 5.9375 3.375 C5.73619282 6.83215921 5.73619282 6.83215921 7 9 C5.1875 8.875 5.1875 8.875 3 8 C0 2.96428571 0 2.96428571 0 0 Z " fill="#787670" transform="translate(143,356)"/>
<path d="M0 0 C2.97 0.33 5.94 0.66 9 1 C9 1.66 9 2.32 9 3 C10.65 3.33 12.3 3.66 14 4 C14 4.66 14 5.32 14 6 C14.66 6.33 15.32 6.66 16 7 C13.02277453 6.29666462 10.14743457 5.41751463 7.25 4.4375 C6.45078125 4.16808594 5.6515625 3.89867187 4.828125 3.62109375 C4.22484375 3.41613281 3.6215625 3.21117187 3 3 C3 2.34 3 1.68 3 1 C2.01 0.67 1.02 0.34 0 0 Z " fill="#6A6965" transform="translate(202,346)"/>
<path d="M0 0 C3.63 0 7.26 0 11 0 C8 2 8 2 5.4375 2.3125 C4.633125 2.539375 3.82875 2.76625 3 3 C1.62533375 5.47636012 1.62533375 5.47636012 1 8 C-0.0625 6.25 -0.0625 6.25 -1 4 C-0.67 2.68 -0.34 1.36 0 0 Z " fill="#595955" transform="translate(352,89)"/>
<path d="M0 0 C0.66 0 1.32 0 2 0 C1.34 3.3 0.68 6.6 0 10 C-0.99 10 -1.98 10 -3 10 C-3.66 7.03 -4.32 4.06 -5 1 C-4.34 1 -3.68 1 -3 1 C-2.34 1.99 -1.68 2.98 -1 4 C-0.67 2.68 -0.34 1.36 0 0 Z " fill="#7F7B6F" transform="translate(146,70)"/>
<path d="M0 0 C4.95 0 9.9 0 15 0 C15.33 0.99 15.66 1.98 16 3 C12.19068824 4.26977059 10.18381007 3.52074507 6.3125 2.5625 C4.54326172 2.13130859 4.54326172 2.13130859 2.73828125 1.69140625 C1.83464844 1.46324219 0.93101562 1.23507812 0 1 C0 0.67 0 0.34 0 0 Z " fill="#484743" transform="translate(178,347)"/>
<path d="M0 0 C5.94 0 11.88 0 18 0 C18 0.33 18 0.66 18 1 C15.36 1 12.72 1 10 1 C10 1.66 10 2.32 10 3 C8.72125 3.061875 7.4425 3.12375 6.125 3.1875 C5.40570313 3.22230469 4.68640625 3.25710938 3.9453125 3.29296875 C3.30335938 3.19628906 2.66140625 3.09960938 2 3 C1.34 2.01 0.68 1.02 0 0 Z " fill="#99958D" transform="translate(134,341)"/>
<path d="M0 0 C0.33 0 0.66 0 1 0 C0.67 6.6 0.34 13.2 0 20 C-0.66 20 -1.32 20 -2 20 C-1.979375 18.906875 -1.95875 17.81375 -1.9375 16.6875 C-1.81455548 13.05615809 -1.81455548 13.05615809 -3 10 C-2.34 9.01 -1.68 8.02 -1 7 C-0.60612212 4.67612053 -0.26513915 2.34206251 0 0 Z " fill="#939189" transform="translate(404,304)"/>
<path d="M0 0 C1.67542976 0.28604898 3.34385343 0.61781233 5 1 C5 3.31 5 5.62 5 8 C2.59454362 9.20272819 1.05003047 9.10071472 -1.625 9.0625 C-2.85089844 9.04896484 -2.85089844 9.04896484 -4.1015625 9.03515625 C-5.04128906 9.01775391 -5.04128906 9.01775391 -6 9 C-6 8.67 -6 8.34 -6 8 C-3.36 7.67 -0.72 7.34 2 7 C2.66 5.35 3.32 3.7 4 2 C3.34 2 2.68 2 2 2 C1.67 2.99 1.34 3.98 1 5 C0.34 3.68 -0.32 2.36 -1 1 C-0.67 0.67 -0.34 0.34 0 0 Z " fill="#979487" transform="translate(125,72)"/>
<path d="M0 0 C0.33 0 0.66 0 1 0 C1 3.96 1 7.92 1 12 C-0.98 12.99 -0.98 12.99 -3 14 C-3.33 12.68 -3.66 11.36 -4 10 C-2.68 9.67 -1.36 9.34 0 9 C0 6.03 0 3.06 0 0 Z " fill="#32312F" transform="translate(366,116)"/>
<path d="M0 0 C2.475 0.495 2.475 0.495 5 1 C5.33 2.65 5.66 4.3 6 6 C4.02 6 2.04 6 0 6 C0 4.02 0 2.04 0 0 Z " fill="#7D796E" transform="translate(149,74)"/>
<path d="M0 0 C3.95829688 -0.22822613 6.67851541 0.44949991 10.3125 2 C11.19550781 2.37125 12.07851562 2.7425 12.98828125 3.125 C13.65214844 3.41375 14.31601563 3.7025 15 4 C15 4.66 15 5.32 15 6 C11.64132288 5.24029922 8.47876342 4.12906745 5.25 2.9375 C4.26515625 2.57527344 3.2803125 2.21304687 2.265625 1.83984375 C1.51796875 1.56269531 0.7703125 1.28554688 0 1 C0 0.67 0 0.34 0 0 Z " fill="#8C8B87" transform="translate(193,347)"/>
<path d="M0 0 C0 0.66 0 1.32 0 2 C-3.28519475 3.09506492 -5.73663415 3.09960608 -9.1875 3.0625 C-10.81751953 3.04896484 -10.81751953 3.04896484 -12.48046875 3.03515625 C-13.31191406 3.02355469 -14.14335937 3.01195312 -15 3 C-15 2.67 -15 2.34 -15 2 C-13.43883181 1.66048381 -11.87598662 1.32867456 -10.3125 1 C-9.44238281 0.814375 -8.57226562 0.62875 -7.67578125 0.4375 C-5.06287036 0.01027953 -2.64186962 -0.07616201 0 0 Z " fill="#BAB8B5" transform="translate(400,343)"/>
<path d="M0 0 C1.09898702 3.29696105 0.87124444 4.40494903 0.0625 7.6875 C-0.22947266 8.89986328 -0.22947266 8.89986328 -0.52734375 10.13671875 C-0.68332031 10.75160156 -0.83929688 11.36648438 -1 12 C-1.33 11.34 -1.66 10.68 -2 10 C-2.66 10 -3.32 10 -4 10 C-3.29445932 6.33118845 -1.72264494 3.29549466 0 0 Z " fill="#88877F" transform="translate(402,333)"/>
<path d="M0 0 C2.97 0 5.94 0 9 0 C8.01 0.495 8.01 0.495 7 1 C7 2.65 7 4.3 7 6 C6.34 6 5.68 6 5 6 C5 4.68 5 3.36 5 2 C3.35 2.66 1.7 3.32 0 4 C0 2.68 0 1.36 0 0 Z " fill="#7D796E" transform="translate(131,74)"/>
<path d="M0 0 C0.99 0 1.98 0 3 0 C3.19622241 4.21878192 2.80230168 7.17010894 1 11 C0.67 11 0.34 11 0 11 C0 7.37 0 3.74 0 0 Z " fill="#9C988D" transform="translate(370,90)"/>
<path d="M0 0 C2.31 0 4.62 0 7 0 C7.33 1.65 7.66 3.3 8 5 C6.33333333 5 4.66666667 5 3 5 C1 3 1 3 0 0 Z " fill="#7C776B" transform="translate(155,74)"/>
<path d="M0 0 C0.66 0 1.32 0 2 0 C2.66 2.97 3.32 5.94 4 9 C3.01 9.33 2.02 9.66 1 10 C-0.1577506 6.52674819 -0.06866652 3.63932552 0 0 Z " fill="#87847F" transform="translate(74,329)"/>
<path d="M0 0 C0.66 1.32 1.32 2.64 2 4 C2.66 4.33 3.32 4.66 4 5 C3.67 5.99 3.34 6.98 3 8 C2.67 7.67 2.34 7.34 2 7 C2.04125 8.11375 2.0825 9.2275 2.125 10.375 C2 14 2 14 0 16 C0 10.72 0 5.44 0 0 Z " fill="#949287" transform="translate(67,229)"/>
<path d="M0 0 C1.65 0 3.3 0 5 0 C5.33 0.66 5.66 1.32 6 2 C6.33 1.34 6.66 0.68 7 0 C7.66 0 8.32 0 9 0 C8.67 1.65 8.34 3.3 8 5 C6 4 4 3 2 2 C1.67 2.99 1.34 3.98 1 5 C0.67 3.35 0.34 1.7 0 0 Z " fill="#757166" transform="translate(120,74)"/>
<path d="M0 0 C0.33 0.66 0.66 1.32 1 2 C2.97888961 2.72693904 4.97954558 3.39816251 7 4 C6.360625 4.28875 5.72125 4.5775 5.0625 4.875 C2.84793921 5.82823451 2.84793921 5.82823451 2 8 C0.74335022 5.09399739 0 3.20395416 0 0 Z " fill="#939089" transform="translate(145,362)"/>
<path d="M0 0 C0.99 0 1.98 0 3 0 C2.67 1.32 2.34 2.64 2 4 C3.32 4.33 4.64 4.66 6 5 C3.08517222 5.80967438 1.53886783 6.21845993 -1.3125 5.0625 C-1.869375 4.711875 -2.42625 4.36125 -3 4 C-2.01 3.67 -1.02 3.34 0 3 C0 2.01 0 1.02 0 0 Z " fill="#9D9B94" transform="translate(108,338)"/>
<path d="M0 0 C0.33 0.66 0.66 1.32 1 2 C1.66 2.33 2.32 2.66 3 3 C2.67 4.65 2.34 6.3 2 8 C1.67 8 1.34 8 1 8 C0.67 9.65 0.34 11.3 0 13 C-0.33 13 -0.66 13 -1 13 C-1.0272415 11.58344207 -1.04650467 10.16672955 -1.0625 8.75 C-1.07410156 7.96109375 -1.08570312 7.1721875 -1.09765625 6.359375 C-1.00385306 4.09308998 -0.63241063 2.1711105 0 0 Z " fill="#393733" transform="translate(112,249)"/>
<path d="M0 0 C0.66 0 1.32 0 2 0 C2.25 2.75 2.25 2.75 2 6 C0 8.375 0 8.375 -2 10 C-1.125 2.25 -1.125 2.25 0 0 Z " fill="#2F2F2E" transform="translate(362,164)"/>
<path d="M0 0 C3.63 0 7.26 0 11 0 C8.53721199 2.46278801 6.29323018 2.99771255 3 4 C1 2 1 2 0 0 Z " fill="#2C2C28" transform="translate(317,89)"/>
<path d="M0 0 C3.63 0 7.26 0 11 0 C11 0.66 11 1.32 11 2 C8.36 2 5.72 2 3 2 C2.67 2.66 2.34 3.32 2 4 C1.34 3.67 0.68 3.34 0 3 C0 2.01 0 1.02 0 0 Z " fill="#6A6864" transform="translate(175,345)"/>
<path d="M0 0 C4.37934119 0.51958285 8.68803391 1.05675742 13 2 C13 2.33 13 2.66 13 3 C11.58376784 3.05447047 10.16691809 3.09300508 8.75 3.125 C7.96109375 3.14820313 7.1721875 3.17140625 6.359375 3.1953125 C3.79268059 2.9828378 2.2083933 2.28654105 0 1 C0 0.67 0 0.34 0 0 Z " fill="#C8C6C1" transform="translate(76,338)"/>
<path d="M0 0 C2.31 0 4.62 0 7 0 C7 0.66 7 1.32 7 2 C5.02 2.66 3.04 3.32 1 4 C0.67 2.68 0.34 1.36 0 0 Z " fill="#25241D" transform="translate(106,89)"/>
<path d="M0 0 C2.475 0.495 2.475 0.495 5 1 C4.6875 2.9375 4.6875 2.9375 4 5 C3.01 5.33 2.02 5.66 1 6 C0.67 4.02 0.34 2.04 0 0 Z " fill="#8A877F" transform="translate(410,47)"/>
<path d="M0 0 C-0.33 0.66 -0.66 1.32 -1 2 C-3.97 2 -6.94 2 -10 2 C-10 1.34 -10 0.68 -10 0 C-6.30581799 -1.231394 -3.7943739 -0.64432764 0 0 Z " fill="#EFEEEA" transform="translate(72,46)"/>
<path d="M0 0 C0.33 0.66 0.66 1.32 1 2 C1.66 2 2.32 2 3 2 C3 4.64 3 7.28 3 10 C2.67 9.01 2.34 8.02 2 7 C1.34 7 0.68 7 0 7 C0 4.69 0 2.38 0 0 Z " fill="#979790" transform="translate(406,232)"/>
<path d="M0 0 C1.98 0 3.96 0 6 0 C5.01 0.33 4.02 0.66 3 1 C2.67 1.66 2.34 2.32 2 3 C1.01 3 0.02 3 -1 3 C-1.33 3.99 -1.66 4.98 -2 6 C-2.66 6 -3.32 6 -4 6 C-4 5.01 -4 4.02 -4 3 C-2.68 2.67 -1.36 2.34 0 2 C0 1.34 0 0.68 0 0 Z " fill="#2E2D29" transform="translate(113,89)"/>
<path d="M0 0 C4.455 0.99 4.455 0.99 9 2 C8.67 2.66 8.34 3.32 8 4 C6.02 4 4.04 4 2 4 C1.34 2.68 0.68 1.36 0 0 Z " fill="#8B897D" transform="translate(180,331)"/>
<path d="M0 0 C0.99 0 1.98 0 3 0 C3 1.32 3 2.64 3 4 C2.34 4 1.68 4 1 4 C1 5.98 1 7.96 1 10 C0.67 10 0.34 10 0 10 C-1.125 2.25 -1.125 2.25 0 0 Z " fill="#9D988B" transform="translate(148,70)"/>
<path d="M0 0 C2 3 2 3 1.625 5.1875 C1.41875 5.785625 1.2125 6.38375 1 7 C-0.32 7 -1.64 7 -3 7 C-3.33 5.68 -3.66 4.36 -4 3 C-3.01 3.495 -3.01 3.495 -2 4 C-2 4.66 -2 5.32 -2 6 C-1.34 6 -0.68 6 0 6 C-0.185625 5.38125 -0.37125 4.7625 -0.5625 4.125 C-1 2 -1 2 0 0 Z M-5 7 C-3 8 -3 8 -3 8 Z " fill="#9A9589" transform="translate(113,73)"/>
<path d="M0 0 C3 1 3 1 4.1875 2.875 C5 5 5 5 5 8 C4.34 8 3.68 8 3 8 C0 2.25 0 2.25 0 0 Z " fill="#736D61" transform="translate(108,71)"/>
<path d="M0 0 C-3.44450737 2.29633824 -5.93812283 2.54016485 -10 3 C-7.29536552 -0.8183075 -4.37912428 -0.24787496 0 0 Z " fill="#888783" transform="translate(286,349)"/>
<path d="M0 0 C0.99 0 1.98 0 3 0 C3 1.32 3 2.64 3 4 C1.35 4 -0.3 4 -2 4 C-1.34 2.68 -0.68 1.36 0 0 Z " fill="#99958A" transform="translate(133,76)"/>
<path d="M0 0 C2.0625 0.4375 2.0625 0.4375 4 1 C3.01 1.495 3.01 1.495 2 2 C1.34444881 4.52733235 1.34444881 4.52733235 1 7 C0.34 6.67 -0.32 6.34 -1 6 C-1.042721 4.33388095 -1.04063832 2.66617115 -1 1 C-0.67 0.67 -0.34 0.34 0 0 Z " fill="#969084" transform="translate(163,73)"/>
</svg>
